<?xml version="1.0" encoding="UTF-8" standalone="no"?>
<!-- Created with Inkscape (http://www.inkscape.org/) -->

<svg
   xmlns:dc="http://purl.org/dc/elements/1.1/"
   xmlns:cc="http://creativecommons.org/ns#"
   xmlns:rdf="http://www.w3.org/1999/02/22-rdf-syntax-ns#"
   xmlns:svg="http://www.w3.org/2000/svg"
   xmlns="http://www.w3.org/2000/svg"
   xmlns:xlink="http://www.w3.org/1999/xlink"
   xmlns:sodipodi="http://sodipodi.sourceforge.net/DTD/sodipodi-0.dtd"
   xmlns:inkscape="http://www.inkscape.org/namespaces/inkscape"
   width="468"
   height="60"
   id="svg2"
   sodipodi:version="0.32"
   inkscape:version="0.47 r22583"
   version="1.0"
   sodipodi:docname="flosscamp_banner.svg"
   inkscape:output_extension="org.inkscape.output.svg.inkscape"
   inkscape:export-filename="flosscamb_banner.png"
   inkscape:export-xdpi="90"
   inkscape:export-ydpi="90">
  <defs
     id="defs4">
    <inkscape:perspective
       sodipodi:type="inkscape:persp3d"
       inkscape:vp_x="0 : 30 : 1"
       inkscape:vp_y="0 : 1000 : 0"
       inkscape:vp_z="468 : 30 : 1"
       inkscape:persp3d-origin="234 : 20 : 1"
       id="perspective50" />
    <linearGradient
       id="linearGradient3648">
      <stop
         style="stop-color:#799034;stop-opacity:1;"
         offset="0"
         id="stop3650" />
      <stop
         id="stop3656"
         offset="0.5"
         style="stop-color:#94b040;stop-opacity:1;" />
      <stop
         style="stop-color:#728831;stop-opacity:1;"
         offset="1"
         id="stop3652" />
    </linearGradient>
    <linearGradient
       inkscape:collect="always"
       xlink:href="#linearGradient3648"
       id="linearGradient3651"
       gradientUnits="userSpaceOnUse"
       x1="2.2200012"
       y1="1696.6469"
       x2="2.2200012"
       y2="1771.8156"
       gradientTransform="translate(212.78,0)" />
    <filter
       inkscape:collect="always"
       id="filter3699">
      <feGaussianBlur
         inkscape:collect="always"
         stdDeviation="0.60168583"
         id="feGaussianBlur3701" />
    </filter>
    <filter
       inkscape:collect="always"
       id="filter3703">
      <feGaussianBlur
         inkscape:collect="always"
         stdDeviation="0.6541207"
         id="feGaussianBlur3705" />
    </filter>
    <filter
       inkscape:collect="always"
       id="filter3737">
      <feGaussianBlur
         inkscape:collect="always"
         stdDeviation="0.894958"
         id="feGaussianBlur3739" />
    </filter>
  </defs>
  <sodipodi:namedview
     id="base"
     pagecolor="#ffffff"
     bordercolor="#666666"
     borderopacity="1.0"
     gridtolerance="10000"
     guidetolerance="10"
     objecttolerance="10"
     inkscape:pageopacity="0"
     inkscape:pageshadow="2"
     inkscape:zoom="2.5277778"
     inkscape:cx="234"
     inkscape:cy="16.373016"
     inkscape:document-units="px"
     inkscape:current-layer="layer1"
     showgrid="false"
     width="1052.36px"
     units="m"
     inkscape:window-width="1280"
     inkscape:window-height="759"
     inkscape:window-x="158"
     inkscape:window-y="24"
     showguides="true"
     inkscape:guide-bbox="true"
     inkscape:window-maximized="0" />
  <metadata
     id="metadata7">
    <rdf:RDF>
      <cc:Work
         rdf:about="">
        <dc:format>image/svg+xml</dc:format>
        <dc:type
           rdf:resource="http://purl.org/dc/dcmitype/StillImage" />
        <dc:title></dc:title>
      </cc:Work>
    </rdf:RDF>
  </metadata>
  <g
     inkscape:label="Layer 1"
     inkscape:groupmode="layer"
     id="layer1"
     transform="translate(0,-1711.6534)">
    <g
       id="g2890"
       inkscape:export-filename="/home/stas/Desktop/fc/flosscamp2010_468.png"
       inkscape:export-xdpi="90"
       inkscape:export-ydpi="90">
      <rect
         style="fill:url(#linearGradient3651);fill-opacity:1;stroke:none"
         id="rect2839"
         width="468"
         height="60"
         x="1.2207031e-06"
         y="1711.6534" />
      <rect
         ry="7.0710678"
         transform="translate(0,1711.6534)"
         y="7"
         x="9"
         height="47"
         width="47"
         id="rect3660"
         style="fill:#ffffff;fill-opacity:1;stroke:#ffffff;stroke-width:1;stroke-linejoin:round;stroke-miterlimit:4;stroke-opacity:1;stroke-dasharray:none;stroke-dashoffset:0" />
      <g
         transform="matrix(0.44818746,0,0,0.44818746,9.3348924,1713.5175)"
         id="g2396">
        <path
           style="fill:#3b5635"
           d="m 361.03125,58.3125 c -8.20364,-0.01046 -16.42136,0.528987 -24.625,1.03125 3.79488,46.35698 11.74878,92.77098 7.65625,139.5 -4.7622,56.8486 -19.47319,113.1859 -45.21875,164.15625 -21.4297,42.11553 -39.31067,86.76944 -44.59375,134.09375 -5.80394,57.29506 -8.70942,116.81955 10.5625,172.03125 -51.64016,-18.67666 -101.92369,-49.84579 -159.21875,-41.4375 4.16693,14.43554 8.34203,28.86517 12.0625,43.375 45.31524,14.1378 95.82777,-3.36741 138.6875,19.625 10.86367,6.39921 21.13775,13.56352 31.40625,20.78125 C 237.52362,732.37769 181.86328,725.01101 130,739 96.218165,752.91435 59.900787,760.34573 26.9375,776.34375 c -15.55152,5.6549 -9.978948,25.21346 -13.625,37.9375 86.686754,2.9023 174.19736,-4.81697 257.3125,-30.5625 14.88178,-4.39038 29.77437,-9.09794 44.65625,-13.5625 -5.65501,15.40254 -11.32403,30.80856 -17.5,46.0625 -17.11395,47.47345 -31.18554,97.63305 -64,137.21875 -17.85827,23.88532 -46.18003,35.50907 -72,48.5313 23.73661,0.2976 52.44528,6.8434 70.75,-12.87505 23.7365,-24.48082 39.73405,-55.15156 56.625,-84.46875 C 307.31194,874.04283 307.09657,833.70382 335,809 c 20.31378,-19.57001 38.08238,-41.4391 53.1875,-65.25 34.60017,10.26828 62.07407,33.923 92.65625,51.78125 52.1608,23.66187 109.90176,34.30771 158.9375,65.1875 14.36113,10.9383 31.38019,0.83396 43.0625,-9.0625 0.52087,-15.32813 -16.5202,-21.07837 -26.9375,-28.59375 -48.51474,-30.95389 -112.3414,-34.66091 -151.40625,-80.125 59.82487,-10.9383 120.52622,-4.03304 180.5,1.25 15.32835,0.0743 38.48465,3.20794 46,-13.90625 5.35737,-27.30827 6.10878,-55.78857 3.28125,-83.46875 -2.82767,-16.07222 -9.01381,-37.75131 -28.0625,-40.28125 -18.37913,-2.90175 -33.4142,11.18256 -48.59375,19.21875 -45.09191,30.43357 -98.74228,44.4862 -152.09375,51.40625 7.29202,-12.87272 15.26896,-25.38757 21.59375,-38.78125 9.67301,-24.62931 16.30032,-50.28121 21.0625,-76.25 1.48797,-8.92935 2.80946,-17.93395 4,-26.9375 5.28285,-65.10827 3.3659,-131.94273 -19.03125,-194 -9.3014,-24.55501 -20.10649,-48.56703 -30.375,-72.75 C 478.30054,212.10955 437.66268,165.38109 404.625,114.1875 392.57056,95.808421 382.91007,75.794188 369.21875,58.53125 c -2.73466,-0.148819 -5.45295,-0.215262 -8.1875,-0.21875 z m 10.5,54.3125 c 21.57871,22.91807 40.09128,48.36437 56.3125,75.375 17.93266,30.28461 42.94739,57.59006 51.28125,92.5625 29.54051,54.91404 53.80802,114.9708 54.03125,178.21875 0.4464,52.01215 3.12806,107.7307 -22.46875,154.90625 -18.15596,29.01974 -40.34763,58.25522 -73.90625,69.9375 -11.1614,4.83663 -22.17498,9.897 -33.1875,15.03125 -20.31379,2.38112 -40.69368,3.11614 -61.15625,2 -10.56614,-3.64608 -21.20316,-7.19026 -31.84375,-10.6875 l -0.6875,-5.375 c -36.4605,-33.85625 -38.67406,-86.81856 -39.34375,-133.25 -0.59535,-54.61659 16.67132,-107.23653 38.25,-156.71875 14.73312,-32.96338 23.50482,-68.53229 41.4375,-100.15625 3.49725,-32.51688 15.10546,-63.68999 18.15625,-96.28125 2.75314,-28.49879 2.08323,-57.06372 3.125,-85.5625 z m 37.78125,479.15625 c 0.15438,2.55225 0.29501,5.10291 0.40625,7.65625 -0.11094,-2.54975 -0.25102,-5.10642 -0.40625,-7.65625 z m 0.40625,7.65625 c 0.22247,5.10669 0.35399,10.20453 0.40625,15.3125 -0.0519,-5.10758 -0.18405,-10.20602 -0.40625,-15.3125 z M 694,640.09375 c 47.33549,-1.23943 11.45683,102.68707 -67.03125,77.46875 C 599.78003,713.71719 523.50018,714.5559 496.0625,712.71875 524.18912,694.41404 619.02487,669.28937 650.5,658.5 669.28292,645.6759 683.63126,640.36526 694,640.09375 z m -285.03125,12.9375 c -0.35953,5.09311 -0.82499,10.17005 -1.34375,15.25 0.51895,-5.08056 0.98376,-10.15694 1.34375,-15.25 z m -3.125,30.46875 c -0.33043,2.47881 -0.66396,4.96357 -1.03125,7.4375 0.36919,-2.47591 0.69898,-4.95673 1.03125,-7.4375 z m 12.125,49.375 c 38.61849,16.66759 76.02023,36.32599 110.84375,60.0625 -42.04143,-9.15256 -77.73165,-33.79606 -110.84375,-60.0625 z m -99.25,5.75 c 2.99085,0.007 5.97842,0.0206 8.96875,0.0625 -86.46355,40.55301 -183.70556,56.63396 -278.875,56.1875 39.288092,-29.39188 88.76647,-37.4935 135.71875,-46.125 44.43631,-6.48765 89.32609,-10.23454 134.1875,-10.125 z m 47,16.375 c -5.5063,17.63479 -17.54961,31.40566 -33.25,40.78125 5.28306,-17.7841 15.61496,-33.34031 33.25,-40.78125 z M 594,809.59375 c 25.59704,7.21798 50.31731,18.3783 69.8125,36.90625 C 637.47172,840.99385 614.16487,827.00556 594,809.59375 z"
           id="path6"
           transform="matrix(0.134392,0,0,0.134392,0,-5.71428)"
           inkscape:export-filename="/home/stas/Desktop/flosscamp.png"
           inkscape:export-xdpi="12.477079"
           inkscape:export-ydpi="12.477079" />
        <path
           style="fill:#94b040"
           d="m 371.53125,112.625 c -1.04176,28.49879 -0.37186,57.0637 -3.125,85.5625 -3.05079,32.59128 -14.659,63.76436 -18.15625,96.28125 -4.24134,45.31535 -6.71461,91.97356 -25.09375,134.3125 -8.03619,20.01614 -20.60393,38.5463 -24.25,60.125 -6.25036,65.25703 -1.04527,131.02574 9,195.6875 l 0.6875,5.375 c 10.64058,3.49724 21.27761,7.04142 31.84375,10.6875 1.64192,-2.44889 3.22673,-4.89525 4.8125,-7.375 1.57632,-2.46481 3.16219,-4.94477 4.6875,-7.4375 0.005,-0.008 -0.005,-0.0236 0,-0.0313 1.52507,-2.49267 3.02133,-4.98196 4.5,-7.5 0.005,-0.008 -0.005,-0.0235 0,-0.0313 1.48307,-2.52583 2.96523,-5.04498 4.40625,-7.59375 2.88733,-5.10565 5.65957,-10.2553 8.40625,-15.4375 1.36645,-2.57872 2.72402,-5.15614 4.0625,-7.75 0.004,-0.008 -0.004,-0.023 0,-0.0313 1.34262,-2.60209 2.6809,-5.19776 4,-7.8125 1.32379,-2.62311 2.63271,-5.24177 3.9375,-7.875 1.30018,-2.62474 2.58907,-5.24275 3.875,-7.875 2.57277,-5.26457 5.11296,-10.5335 7.65625,-15.8125 5.08506,-10.55777 10.15369,-21.13327 15.34375,-31.625 0.72551,7.64551 1.26049,15.30912 1.59375,22.96875 0.22219,5.10646 0.3544,10.20492 0.40625,15.3125 0.0518,5.0972 0.021,10.21823 -0.0937,15.3125 -2.1e-4,0.0104 2.4e-4,0.0208 0,0.0313 -0.11526,5.10472 -0.31453,10.18355 -0.59375,15.28125 -0.13959,2.54887 -0.28876,5.10991 -0.46875,7.65625 -0.53996,7.63905 -1.26001,15.26769 -2.15625,22.875 -0.8962,7.60731 -1.97704,15.18814 -3.21875,22.75 11.01254,-5.13425 22.0261,-10.19462 33.1875,-15.03125 4.09255,-52.68183 13.62375,-105.21418 33.9375,-154.25 1.71142,31.69833 0.0791,63.38793 -3.34375,94.9375 6.10157,0.22329 18.22283,0.6012 24.25,0.75 2.6043,-50.37511 10.56229,-100.29299 13.6875,-150.59375 C 510.96759,408.61642 491.03051,344.62897 479.125,280.5625 470.79114,245.59006 445.77641,218.28462 427.84375,188 411.62252,160.98937 393.10997,135.54308 371.53125,112.625 z m 33.5625,84.4375 C 435.52717,260.38488 456.4373,330.03431 459.5625,400.5 442.0763,355.6311 429.62913,308.97748 411.25,264.40625 c -9.44994,-21.2067 -7.27239,-44.79772 -6.15625,-67.34375 z m -23,94.875 c 2.90195,58.18818 3.05935,116.44874 5.8125,174.5625 2.90196,68.08464 -9.54194,139.95341 -52.625,194.71875 -11.83109,-64.88502 1.28371,-130.86203 9.46875,-195.375 3.12519,25.07598 -8.27883,61.98312 24.3125,70.09375 3.42283,-70.46573 -3.05384,-141.00302 1.1875,-211.46875 -0.0744,-12.05434 6.26304,-22.41157 11.84375,-32.53125 z m 27.6875,39.15625 c 31.54961,67.11731 44.03081,144.5594 27.4375,217.40625 -23.14134,-69.79604 -34.5064,-143.88972 -27.4375,-217.40625 z"
           id="path8"
           inkscape:export-filename="/home/stas/Desktop/flosscamp.png"
           inkscape:export-xdpi="12.477079"
           inkscape:export-ydpi="12.477079"
           transform="matrix(0.134392,0,0,0.134392,0,-5.71428)" />
        <path
           style="fill:#94b040"
           d="m 71.558295,40.138415 c 3.009996,8.339997 3.267639,17.321957 2.557638,26.071951 0.369999,-2.51 0.88211,-5.012327 1.43211,-7.492326 0.189996,4.449997 -0.0096,8.911559 -0.579564,13.321557 -0.350005,-0.549999 -1.050112,-1.65906 -1.390112,-2.20906 -0.640002,3.489996 -1.530619,6.937351 -2.830621,10.247352 6.069995,-5.459995 8.599155,-14.159006 7.089152,-22.099002 C 76.716902,51.79889 75.848295,45.048414 71.558295,40.138415 z"
           id="path20"
           inkscape:export-filename="/home/stas/Desktop/flosscamp.png"
           inkscape:export-xdpi="12.477079"
           inkscape:export-ydpi="12.477079" />
        <path
           d="m 16.55,82.01 c 3.85,-0.74 8.02,-0.77 11.19,1.88 -3.85,0.63 -7.95,0.59 -11.19,-1.88 z"
           id="path28"
           style="fill:#94b040"
           inkscape:export-filename="/home/stas/Desktop/flosscamp.png"
           inkscape:export-xdpi="12.477079"
           inkscape:export-ydpi="12.477079" />
        <path
           d="m 34.45,87.11 c 1.46,0.86 2.84,1.82 4.22,2.79 -6.75,2.81 -14.23,1.82 -21.2,3.7 C 13.03,92.96 8.52,92.74 4.09,93.57 4.22,93.11 4.49,92.18 4.62,91.72 14.52,89.89 24.77,90 34.45,87.11 z"
           id="path32"
           style="fill:#94b040"
           inkscape:export-filename="/home/stas/Desktop/flosscamp.png"
           inkscape:export-xdpi="12.477079"
           inkscape:export-ydpi="12.477079" />
        <path
           d="m 36.37,99.61 c 2,-0.59 4,-1.22 6,-1.82 -0.76,2.07 -1.52,4.14 -2.35,6.19 -5.21,7.2 -10.45,14.38 -15.38,21.77 -0.97,-0.28 -1.94,-0.56 -2.91,-0.83 3.37,-6.78 7.89,-12.88 12.02,-19.21 1.23,-1.86 2.02,-3.96 2.62,-6.1 z"
           id="path42"
           style="fill:#94b040"
           inkscape:export-filename="/home/stas/Desktop/flosscamp.png"
           inkscape:export-xdpi="12.477079"
           inkscape:export-ydpi="12.477079" />
        <path
           d="m 66.399152,90.100116 c 3.78,-2.46 16.52431,-5.83454 20.75431,-7.284543 14.048048,-9.591427 9.69609,12.065723 -3.16261,7.934203 -3.65395,-0.51676 -13.9043,-0.40276 -17.5917,-0.64966 z"
           id="path2430"
           style="fill:#94b040"
           sodipodi:nodetypes="cccc"
           inkscape:export-filename="/home/stas/Desktop/flosscamp.png"
           inkscape:export-xdpi="12.477079"
           inkscape:export-ydpi="12.477079" />
      </g>
      <g
         transform="translate(14,1)"
         id="g3713">
        <g
           transform="matrix(0.91983884,0,0,0.91983946,53.752697,137.35656)"
           id="g3666"
           style="fill:#000000;stroke:#000000;stroke-width:1.00000036;stroke-opacity:0.15702479;filter:url(#filter3703)">
          <path
             id="path3668"
             d="m 55.71716,1723.5962 c -2.13201,0 -3.72599,0.9114 -4.84147,2.6342 -1.11545,1.7222 -1.65804,4.2268 -1.65804,7.4971 0,3.2708 0.54259,5.7072 1.65804,7.4296 1.12448,1.7131 2.71846,2.6343 4.84147,2.6343 2.14097,0 3.7923,-0.9121 4.9078,-2.6343 1.11545,-1.7226 1.65801,-4.1679 1.65804,-7.4296 -3e-5,-3.2796 -0.53359,-5.7842 -1.65804,-7.4971 -1.11548,-1.7228 -2.77581,-2.6342 -4.9078,-2.6342 z m 17.37624,0 c -1.73618,0 -3.1111,0.453 -4.24457,1.3508 -1.13345,0.8979 -1.72436,2.1791 -1.72436,3.7824 0,0.6047 0.11566,1.1758 0.3316,1.6886 0.21593,0.5131 0.5327,0.9381 0.92851,1.3509 0.3958,0.4122 0.79798,0.7746 1.19378,1.013 0.40481,0.2289 1.28549,0.6424 2.65286,1.2834 1.33134,0.6227 2.22442,1.219 2.71919,1.8235 0.49474,0.5955 0.72953,1.3677 0.72953,2.229 0,1.1631 -0.36282,2.0326 -1.12746,2.7017 -0.75564,0.6594 -1.79141,1.013 -3.05079,1.013 -1.07953,0 -2.33202,-0.3443 -3.78033,-1.013 l -0.46425,1.9586 c 1.23241,0.6597 2.67366,1.0133 4.3109,1.0133 1.69117,0 3.13581,-0.5185 4.37722,-1.5536 1.25041,-1.0444 1.92332,-2.5705 1.92332,-4.4578 0,-0.7603 -0.17636,-1.4217 -0.46425,-2.0262 -0.27889,-0.6139 -0.65969,-1.1047 -1.12746,-1.5534 -0.46778,-0.4489 -0.934,-0.8243 -1.39275,-1.0807 -0.4498,-0.2565 -1.38217,-0.7588 -2.78551,-1.4185 -1.89809,-0.8887 -2.85182,-1.8667 -2.85182,-3.0393 0,-0.9892 0.40779,-1.7647 1.12746,-2.2964 0.72865,-0.5403 1.63404,-0.8105 2.78551,-0.8105 1.01649,0 2.11626,0.214 3.24975,0.6078 l 0.46425,-1.9586 c -1.25041,-0.3945 -2.51194,-0.608 -3.78033,-0.608 z m 16.58039,0 c -1.73618,0 -3.17743,0.453 -4.3109,1.3508 -1.13345,0.8979 -1.65804,2.1791 -1.65804,3.7824 0,0.6047 0.11566,1.1758 0.33161,1.6886 0.21592,0.5131 0.46637,0.9381 0.86218,1.3509 0.3958,0.4122 0.79798,0.7746 1.19378,1.013 0.40481,0.2289 1.2855,0.6424 2.65286,1.2834 1.33136,0.6227 2.29074,1.219 2.78551,1.8235 0.49477,0.5955 0.72954,1.3677 0.72954,2.229 0,1.1631 -0.36285,2.0326 -1.12747,2.7017 -0.75566,0.6594 -1.7914,1.013 -3.05079,1.013 -1.07952,0 -2.33199,-0.3443 -3.78033,-1.013 l -0.46425,1.9586 c 1.23239,0.6597 2.67366,1.0133 4.3109,1.0133 1.69117,0 3.13583,-0.5185 4.37722,-1.5536 1.25041,-1.0444 1.92333,-2.5705 1.92333,-4.4578 0,-0.7603 -0.17637,-1.4217 -0.46425,-2.0262 -0.27889,-0.6139 -0.65972,-1.1047 -1.12747,-1.5534 -0.4678,-0.4489 -0.93396,-0.8243 -1.39275,-1.0807 -0.4498,-0.2565 -1.38219,-0.7588 -2.78551,-1.4185 -1.89811,-0.8887 -2.85182,-1.8667 -2.85182,-3.0393 0,-0.9892 0.40782,-1.7647 1.12746,-2.2964 0.72865,-0.5403 1.63406,-0.8105 2.78551,-0.8105 1.01651,0 2.11626,0.214 3.24975,0.6078 l 0.46425,-1.9586 c -1.25041,-0.3945 -2.51192,-0.608 -3.78032,-0.608 z m 16.77934,0 c -2.54579,0 -4.46224,0.9151 -5.70365,2.7017 -1.24141,1.7772 -1.857,4.2784 -1.857,7.4296 0,3.2617 0.64592,5.707 1.92332,7.4296 1.28639,1.7222 3.17251,2.6343 5.63733,2.6343 1.97006,0 3.67978,-0.5676 5.17308,-1.621 l -0.66321,-1.7561 c -1.5383,0.9162 -3.04358,1.3508 -4.50987,1.3508 -3.46334,0 -5.17308,-2.6507 -5.17308,-8.0376 0,-2.8031 0.40551,-4.8546 1.26011,-6.1462 0.85459,-1.3014 2.15882,-1.9588 3.91297,-1.9588 1.51129,0 2.90983,0.3477 4.17826,1.0806 l 0.72954,-1.7561 c -0.54876,-0.3938 -1.28906,-0.7074 -2.18861,-0.9456 -0.8996,-0.2364 -1.80162,-0.4052 -2.71919,-0.4052 z m -88.67188,0.4052 0,19.3847 2.25493,0 0,-9.1183 7.16273,0 0,-1.9586 -7.16273,0 0,-6.3489 7.82594,0 0,-1.9589 -10.08087,0 z m 16.58038,0 0,19.3847 10.34616,0 0,-1.9588 -8.15755,0 0,-17.4259 -2.18861,0 z m 21.35553,1.6211 c 2.80667,0 4.24458,2.7092 4.24458,8.105 0,5.3869 -1.43791,8.0376 -4.24458,8.0376 -1.37634,0 -2.40646,-0.6521 -3.11711,-2.0263 -0.71067,-1.3834 -1.06116,-3.3818 -1.06114,-6.0113 -2e-5,-2.6016 0.35047,-4.6186 1.06114,-6.0111 0.71965,-1.4017 1.74974,-2.0939 3.11711,-2.0939 z m 66.98475,3.1069 c -1.64622,0 -3.45596,0.4874 -5.37205,1.4859 l 0.5969,1.5536 c 0.58473,-0.3208 1.24637,-0.5814 2.05597,-0.8105 0.8186,-0.2386 1.5252,-0.4053 2.05596,-0.4053 2.24893,0 3.3824,1.2597 3.3824,3.7147 l 0,0.6754 -2.38757,0.2032 c -1.06151,0.082 -1.94555,0.2527 -2.71919,0.4727 -0.77364,0.2097 -1.44992,0.5023 -1.98964,0.8782 -0.53976,0.3661 -0.98124,0.8105 -1.26011,1.3508 -0.27887,0.5403 -0.39793,1.1859 -0.39793,1.8912 0,1.1907 0.40217,2.1438 1.19379,2.9042 0.80063,0.7513 1.74197,1.1483 2.7855,1.1483 2.06,0 3.64505,-0.9156 4.84147,-2.7017 0,0.9616 0.0944,1.7189 0.26529,2.2964 l 2.12229,0 c -0.2339,-0.9711 -0.39793,-2.0636 -0.39793,-3.3096 l 0,-6.1462 c 0,-3.4537 -1.57266,-5.2009 -4.77515,-5.2009 z m 14.45809,0 c -0.53976,0 -1.1093,0.2172 -1.65804,0.6754 -0.53974,0.4489 -0.99694,1.0634 -1.39275,1.8237 l 0,-2.1613 -2.05597,0 0,14.3189 2.12229,0 0,-10.334 c -2e-5,-0.082 0.22577,-0.5045 0.72954,-1.2832 0.51277,-0.7878 0.97895,-1.2158 1.39275,-1.2158 0.83661,0 1.26009,1.1726 1.26011,3.4446 l 0,9.3884 2.12229,0 0,-10.334 c -2e-5,-0.082 0.22575,-0.5045 0.72954,-1.2832 0.51274,-0.7878 0.96994,-1.2158 1.39275,-1.2158 0.82758,0 1.26009,1.1726 1.26011,3.4446 l 0,9.3884 2.12229,0 0,-9.9962 c -3e-5,-3.0968 -0.88638,-4.6605 -2.58654,-4.6605 -0.53077,0 -1.04298,0.2172 -1.59172,0.6754 -0.54876,0.4489 -0.99693,1.0634 -1.39275,1.8237 -0.17085,-0.7603 -0.47875,-1.3748 -0.9285,-1.8237 -0.4498,-0.4582 -0.95868,-0.6754 -1.5254,-0.6754 z m 19.16692,0 c -0.88158,0 -1.7196,0.2053 -2.52022,0.608 -0.79163,0.4028 -1.45555,0.8937 -1.92332,1.5533 l 0,-1.8235 -2.05597,0 0,19.9924 2.05597,0 0,-7.7674 c 0.4408,0.7329 1.03504,1.3748 1.79068,1.8237 0.76462,0.4399 1.64764,0.6078 2.52022,0.6078 1.63724,0 2.88406,-0.7046 3.84665,-2.1613 0.9715,-1.4656 1.45905,-3.2723 1.45907,-5.4708 -2e-5,-2.1806 -0.4662,-3.9799 -1.39275,-5.336 -0.91757,-1.3648 -2.16111,-2.0262 -3.78033,-2.0262 z m -0.66321,1.8237 c 1.14242,0 2.08048,0.5767 2.71918,1.621 0.63868,1.0442 0.92848,2.3358 0.9285,3.9849 -2e-5,1.6031 -0.32017,2.9714 -0.99482,4.0525 -0.6657,1.0811 -1.58573,1.621 -2.71919,1.621 -0.71966,0 -1.38129,-0.2701 -2.05596,-0.8105 -0.6747,-0.5405 -1.26221,-1.22 -1.65804,-2.0262 l 0,-5.9437 c 1.03451,-1.6489 2.29602,-2.499 3.78033,-2.499 z m -30.24262,6.0112 0,2.5666 c -0.55774,0.7971 -1.25202,1.4329 -1.98965,1.8911 -0.73766,0.4489 -1.44198,0.6754 -2.18861,0.6754 -0.68369,0 -1.28358,-0.2139 -1.72436,-0.6077 -0.4408,-0.394 -0.66321,-0.9121 -0.66321,-1.5536 0,-0.7052 0.28307,-1.2763 0.79586,-1.6884 0.52174,-0.4129 1.15531,-0.6636 1.857,-0.8105 0.71065,-0.1557 2.01486,-0.2979 3.91297,-0.4729 z"
             style="font-size:900px;font-style:normal;font-weight:normal;fill:#000000;fill-opacity:1;stroke:#000000;stroke-width:1.08714664;stroke-miterlimit:4;stroke-opacity:0.15702479;stroke-dasharray:none;font-family:Bitstream Vera Sans" />
          <text
             sodipodi:linespacing="89.999998%"
             id="text3670"
             y="1741.665"
             x="170.51711"
             style="font-size:25.65375137px;font-style:normal;font-variant:normal;font-weight:normal;font-stretch:normal;text-align:start;line-height:89.99999762%;writing-mode:lr-tb;text-anchor:start;fill:#000000;fill-opacity:1;stroke:#000000;stroke-width:1.08714664;stroke-opacity:0.15702479;font-family:Silkscreen;-inkscape-font-specification:DejaVu Sans"
             xml:space="preserve"
             transform="scale(0.99895449,1.0010466)"><tspan
               y="1741.665"
               x="170.51711"
               id="tspan3672"
               sodipodi:role="line"
               style="font-style:normal;font-variant:normal;font-weight:normal;font-stretch:normal;fill:#000000;stroke:#000000;stroke-width:1.08714664;stroke-opacity:0.15702479;font-family:DejaVu Sans;-inkscape-font-specification:DejaVu Sans">2010</tspan></text>
        </g>
        <text
           sodipodi:linespacing="89.999998%"
           id="text3674"
           y="1759.8849"
           x="68.367409"
           style="font-size:13.99999237px;font-style:normal;font-variant:normal;font-weight:normal;font-stretch:normal;text-align:start;line-height:89.99999762%;writing-mode:lr-tb;text-anchor:start;fill:#000000;fill-opacity:1;stroke:#000000;stroke-width:0.99999982;stroke-opacity:0.15702479;filter:url(#filter3699);font-family:DejaVu Sans;-inkscape-font-specification:DejaVu Sans"
           xml:space="preserve"><tspan
             y="1759.8849"
             x="68.367409"
             id="tspan3676"
             sodipodi:role="line"
             style="stroke:#000000;stroke-width:0.99999982;stroke-opacity:0.15702479">http://camp.softwareliber.ro/</tspan></text>
        <g
           id="g3653"
           transform="matrix(0.91983946,0,0,0.91983946,53.385274,136.71011)">
          <path
             style="font-size:900px;font-style:normal;font-weight:normal;fill:#ffffff;fill-opacity:1;stroke:#ffffff;stroke-width:1.08714628;stroke-miterlimit:4;stroke-dasharray:none;font-family:Bitstream Vera Sans"
             d="m 55.71716,1723.5962 c -2.13201,0 -3.72599,0.9114 -4.84147,2.6342 -1.11545,1.7222 -1.65804,4.2268 -1.65804,7.4971 0,3.2708 0.54259,5.7072 1.65804,7.4296 1.12448,1.7131 2.71846,2.6343 4.84147,2.6343 2.14097,0 3.7923,-0.9121 4.9078,-2.6343 1.11545,-1.7226 1.65801,-4.1679 1.65804,-7.4296 -3e-5,-3.2796 -0.53359,-5.7842 -1.65804,-7.4971 -1.11548,-1.7228 -2.77581,-2.6342 -4.9078,-2.6342 z m 17.37624,0 c -1.73618,0 -3.1111,0.453 -4.24457,1.3508 -1.13345,0.8979 -1.72436,2.1791 -1.72436,3.7824 0,0.6047 0.11566,1.1758 0.3316,1.6886 0.21593,0.5131 0.5327,0.9381 0.92851,1.3509 0.3958,0.4122 0.79798,0.7746 1.19378,1.013 0.40481,0.2289 1.28549,0.6424 2.65286,1.2834 1.33134,0.6227 2.22442,1.219 2.71919,1.8235 0.49474,0.5955 0.72953,1.3677 0.72953,2.229 0,1.1631 -0.36282,2.0326 -1.12746,2.7017 -0.75564,0.6594 -1.79141,1.013 -3.05079,1.013 -1.07953,0 -2.33202,-0.3443 -3.78033,-1.013 l -0.46425,1.9586 c 1.23241,0.6597 2.67366,1.0133 4.3109,1.0133 1.69117,0 3.13581,-0.5185 4.37722,-1.5536 1.25041,-1.0444 1.92332,-2.5705 1.92332,-4.4578 0,-0.7603 -0.17636,-1.4217 -0.46425,-2.0262 -0.27889,-0.6139 -0.65969,-1.1047 -1.12746,-1.5534 -0.46778,-0.4489 -0.934,-0.8243 -1.39275,-1.0807 -0.4498,-0.2565 -1.38217,-0.7588 -2.78551,-1.4185 -1.89809,-0.8887 -2.85182,-1.8667 -2.85182,-3.0393 0,-0.9892 0.40779,-1.7647 1.12746,-2.2964 0.72865,-0.5403 1.63404,-0.8105 2.78551,-0.8105 1.01649,0 2.11626,0.214 3.24975,0.6078 l 0.46425,-1.9586 c -1.25041,-0.3945 -2.51194,-0.608 -3.78033,-0.608 z m 16.58039,0 c -1.73618,0 -3.17743,0.453 -4.3109,1.3508 -1.13345,0.8979 -1.65804,2.1791 -1.65804,3.7824 0,0.6047 0.11566,1.1758 0.33161,1.6886 0.21592,0.5131 0.46637,0.9381 0.86218,1.3509 0.3958,0.4122 0.79798,0.7746 1.19378,1.013 0.40481,0.2289 1.2855,0.6424 2.65286,1.2834 1.33136,0.6227 2.29074,1.219 2.78551,1.8235 0.49477,0.5955 0.72954,1.3677 0.72954,2.229 0,1.1631 -0.36285,2.0326 -1.12747,2.7017 -0.75566,0.6594 -1.7914,1.013 -3.05079,1.013 -1.07952,0 -2.33199,-0.3443 -3.78033,-1.013 l -0.46425,1.9586 c 1.23239,0.6597 2.67366,1.0133 4.3109,1.0133 1.69117,0 3.13583,-0.5185 4.37722,-1.5536 1.25041,-1.0444 1.92333,-2.5705 1.92333,-4.4578 0,-0.7603 -0.17637,-1.4217 -0.46425,-2.0262 -0.27889,-0.6139 -0.65972,-1.1047 -1.12747,-1.5534 -0.4678,-0.4489 -0.93396,-0.8243 -1.39275,-1.0807 -0.4498,-0.2565 -1.38219,-0.7588 -2.78551,-1.4185 -1.89811,-0.8887 -2.85182,-1.8667 -2.85182,-3.0393 0,-0.9892 0.40782,-1.7647 1.12746,-2.2964 0.72865,-0.5403 1.63406,-0.8105 2.78551,-0.8105 1.01651,0 2.11626,0.214 3.24975,0.6078 l 0.46425,-1.9586 c -1.25041,-0.3945 -2.51192,-0.608 -3.78032,-0.608 z m 16.77934,0 c -2.54579,0 -4.46224,0.9151 -5.70365,2.7017 -1.24141,1.7772 -1.857,4.2784 -1.857,7.4296 0,3.2617 0.64592,5.707 1.92332,7.4296 1.28639,1.7222 3.17251,2.6343 5.63733,2.6343 1.97006,0 3.67978,-0.5676 5.17308,-1.621 l -0.66321,-1.7561 c -1.5383,0.9162 -3.04358,1.3508 -4.50987,1.3508 -3.46334,0 -5.17308,-2.6507 -5.17308,-8.0376 0,-2.8031 0.40551,-4.8546 1.26011,-6.1462 0.85459,-1.3014 2.15882,-1.9588 3.91297,-1.9588 1.51129,0 2.90983,0.3477 4.17826,1.0806 l 0.72954,-1.7561 c -0.54876,-0.3938 -1.28906,-0.7074 -2.18861,-0.9456 -0.8996,-0.2364 -1.80162,-0.4052 -2.71919,-0.4052 z m -88.67188,0.4052 0,19.3847 2.25493,0 0,-9.1183 7.16273,0 0,-1.9586 -7.16273,0 0,-6.3489 7.82594,0 0,-1.9589 -10.08087,0 z m 16.58038,0 0,19.3847 10.34616,0 0,-1.9588 -8.15755,0 0,-17.4259 -2.18861,0 z m 21.35553,1.6211 c 2.80667,0 4.24458,2.7092 4.24458,8.105 0,5.3869 -1.43791,8.0376 -4.24458,8.0376 -1.37634,0 -2.40646,-0.6521 -3.11711,-2.0263 -0.71067,-1.3834 -1.06116,-3.3818 -1.06114,-6.0113 -2e-5,-2.6016 0.35047,-4.6186 1.06114,-6.0111 0.71965,-1.4017 1.74974,-2.0939 3.11711,-2.0939 z m 66.98475,3.1069 c -1.64622,0 -3.45596,0.4874 -5.37205,1.4859 l 0.5969,1.5536 c 0.58473,-0.3208 1.24637,-0.5814 2.05597,-0.8105 0.8186,-0.2386 1.5252,-0.4053 2.05596,-0.4053 2.24893,0 3.3824,1.2597 3.3824,3.7147 l 0,0.6754 -2.38757,0.2032 c -1.06151,0.082 -1.94555,0.2527 -2.71919,0.4727 -0.77364,0.2097 -1.44992,0.5023 -1.98964,0.8782 -0.53976,0.3661 -0.98124,0.8105 -1.26011,1.3508 -0.27887,0.5403 -0.39793,1.1859 -0.39793,1.8912 0,1.1907 0.40217,2.1438 1.19379,2.9042 0.80063,0.7513 1.74197,1.1483 2.7855,1.1483 2.06,0 3.64505,-0.9156 4.84147,-2.7017 0,0.9616 0.0944,1.7189 0.26529,2.2964 l 2.12229,0 c -0.2339,-0.9711 -0.39793,-2.0636 -0.39793,-3.3096 l 0,-6.1462 c 0,-3.4537 -1.57266,-5.2009 -4.77515,-5.2009 z m 14.45809,0 c -0.53976,0 -1.1093,0.2172 -1.65804,0.6754 -0.53974,0.4489 -0.99694,1.0634 -1.39275,1.8237 l 0,-2.1613 -2.05597,0 0,14.3189 2.12229,0 0,-10.334 c -2e-5,-0.082 0.22577,-0.5045 0.72954,-1.2832 0.51277,-0.7878 0.97895,-1.2158 1.39275,-1.2158 0.83661,0 1.26009,1.1726 1.26011,3.4446 l 0,9.3884 2.12229,0 0,-10.334 c -2e-5,-0.082 0.22575,-0.5045 0.72954,-1.2832 0.51274,-0.7878 0.96994,-1.2158 1.39275,-1.2158 0.82758,0 1.26009,1.1726 1.26011,3.4446 l 0,9.3884 2.12229,0 0,-9.9962 c -3e-5,-3.0968 -0.88638,-4.6605 -2.58654,-4.6605 -0.53077,0 -1.04298,0.2172 -1.59172,0.6754 -0.54876,0.4489 -0.99693,1.0634 -1.39275,1.8237 -0.17085,-0.7603 -0.47875,-1.3748 -0.9285,-1.8237 -0.4498,-0.4582 -0.95868,-0.6754 -1.5254,-0.6754 z m 19.16692,0 c -0.88158,0 -1.7196,0.2053 -2.52022,0.608 -0.79163,0.4028 -1.45555,0.8937 -1.92332,1.5533 l 0,-1.8235 -2.05597,0 0,19.9924 2.05597,0 0,-7.7674 c 0.4408,0.7329 1.03504,1.3748 1.79068,1.8237 0.76462,0.4399 1.64764,0.6078 2.52022,0.6078 1.63724,0 2.88406,-0.7046 3.84665,-2.1613 0.9715,-1.4656 1.45905,-3.2723 1.45907,-5.4708 -2e-5,-2.1806 -0.4662,-3.9799 -1.39275,-5.336 -0.91757,-1.3648 -2.16111,-2.0262 -3.78033,-2.0262 z m -0.66321,1.8237 c 1.14242,0 2.08048,0.5767 2.71918,1.621 0.63868,1.0442 0.92848,2.3358 0.9285,3.9849 -2e-5,1.6031 -0.32017,2.9714 -0.99482,4.0525 -0.6657,1.0811 -1.58573,1.621 -2.71919,1.621 -0.71966,0 -1.38129,-0.2701 -2.05596,-0.8105 -0.6747,-0.5405 -1.26221,-1.22 -1.65804,-2.0262 l 0,-5.9437 c 1.03451,-1.6489 2.29602,-2.499 3.78033,-2.499 z m -30.24262,6.0112 0,2.5666 c -0.55774,0.7971 -1.25202,1.4329 -1.98965,1.8911 -0.73766,0.4489 -1.44198,0.6754 -2.18861,0.6754 -0.68369,0 -1.28358,-0.2139 -1.72436,-0.6077 -0.4408,-0.394 -0.66321,-0.9121 -0.66321,-1.5536 0,-0.7052 0.28307,-1.2763 0.79586,-1.6884 0.52174,-0.4129 1.15531,-0.6636 1.857,-0.8105 0.71065,-0.1557 2.01486,-0.2979 3.91297,-0.4729 z"
             id="flowRoot2417" />
          <text
             transform="scale(0.99895449,1.0010466)"
             xml:space="preserve"
             style="font-size:25.65375137px;font-style:normal;font-variant:normal;font-weight:normal;font-stretch:normal;text-align:start;line-height:89.99999762%;writing-mode:lr-tb;text-anchor:start;fill:#ffffff;fill-opacity:1;stroke:#ffffff;stroke-width:1.08714628;font-family:Silkscreen;-inkscape-font-specification:DejaVu Sans"
             x="170.51711"
             y="1741.665"
             id="text3635"
             sodipodi:linespacing="89.999998%"><tspan
               style="font-style:normal;font-variant:normal;font-weight:normal;font-stretch:normal;stroke:#ffffff;stroke-width:1.08714628;font-family:DejaVu Sans;-inkscape-font-specification:DejaVu Sans"
               sodipodi:role="line"
               id="tspan3637"
               x="170.51711"
               y="1741.665">2010</tspan></text>
        </g>
        <text
           xml:space="preserve"
           style="font-size:14px;font-style:normal;font-variant:normal;font-weight:normal;font-stretch:normal;text-align:start;line-height:89.99999762%;writing-mode:lr-tb;text-anchor:start;fill:#3b5635;fill-opacity:1;stroke:none;font-family:DejaVu Sans;-inkscape-font-specification:DejaVu Sans"
           x="68"
           y="1759.2393"
           id="text3662"
           sodipodi:linespacing="89.999998%"><tspan
             sodipodi:role="line"
             id="tspan3664"
             x="68"
             y="1759.2393">http://camp.softwareliber.ro/</tspan></text>
      </g>
      <g
         transform="translate(0,-1.4142136)"
         id="g3741">
        <text
           transform="scale(0.76153134,1.3131436)"
           sodipodi:linespacing="89.999998%"
           id="text3727"
           y="1326.8528"
           x="517.3786"
           style="font-size:18.38401031px;font-style:normal;font-variant:normal;font-weight:normal;font-stretch:normal;text-align:start;line-height:89.99999762%;writing-mode:lr-tb;text-anchor:start;opacity:0.4921875;fill:#000000;fill-opacity:1;stroke:#000000;stroke-width:1;stroke-linejoin:round;stroke-miterlimit:4;stroke-opacity:1;stroke-dasharray:none;stroke-dashoffset:0;filter:url(#filter3737);font-family:DejaVu Sans;-inkscape-font-specification:DejaVu Sans"
           xml:space="preserve"><tspan
             style="text-align:center;text-anchor:middle;fill:#000000;stroke:#000000;stroke-width:1;stroke-opacity:1"
             y="1326.8528"
             x="517.3786"
             id="tspan3729"
             sodipodi:role="line">(6)7-8 August 2010</tspan><tspan
             style="text-align:center;text-anchor:middle;fill:#000000;stroke:#000000;stroke-width:1;stroke-opacity:1"
             id="tspan3731"
             y="1343.3984"
             x="517.3786"
             sodipodi:role="line">Predeal, România</tspan></text>
        <text
           xml:space="preserve"
           style="font-size:18.38401031px;font-style:normal;font-variant:normal;font-weight:normal;font-stretch:normal;text-align:start;line-height:89.99999762%;writing-mode:lr-tb;text-anchor:start;fill:#ffffff;fill-opacity:1;stroke:#ffffff;stroke-width:1;stroke-linejoin:round;stroke-miterlimit:4;stroke-opacity:1;stroke-dasharray:none;stroke-dashoffset:0;font-family:DejaVu Sans;-inkscape-font-specification:DejaVu Sans"
           x="515.68085"
           y="1326.4067"
           id="text3707"
           sodipodi:linespacing="89.999998%"
           transform="scale(0.76153134,1.3131436)"><tspan
             sodipodi:role="line"
             id="tspan3709"
             x="515.68085"
             y="1326.4067"
             style="text-align:center;text-anchor:middle;fill:#ffffff;stroke:#ffffff;stroke-width:1;stroke-opacity:1"><tspan
   id="tspan3753"
   style="fill:#3b5635;fill-opacity:1;stroke:#3b5635;stroke-opacity:1">(6)7-</tspan><tspan
   id="tspan3749"
   style="fill:#3b5635;stroke:#3b5635;fill-opacity:1;stroke-opacity:1">8</tspan> August 2010</tspan><tspan
             sodipodi:role="line"
             x="515.68085"
             y="1342.9524"
             id="tspan3711"
             style="text-align:center;text-anchor:middle;fill:#ffffff;stroke:#ffffff;stroke-width:1;stroke-opacity:1">Predeal, România</tspan></text>
      </g>
    </g>
  </g>
</svg>
