<?xml version="1.0" encoding="UTF-8" standalone="no"?>
<!-- Created with Inkscape (http://www.inkscape.org/) -->

<svg
   xmlns:dc="http://purl.org/dc/elements/1.1/"
   xmlns:cc="http://creativecommons.org/ns#"
   xmlns:rdf="http://www.w3.org/1999/02/22-rdf-syntax-ns#"
   xmlns:svg="http://www.w3.org/2000/svg"
   xmlns="http://www.w3.org/2000/svg"
   xmlns:xlink="http://www.w3.org/1999/xlink"
   xmlns:sodipodi="http://sodipodi.sourceforge.net/DTD/sodipodi-0.dtd"
   xmlns:inkscape="http://www.inkscape.org/namespaces/inkscape"
   width="120"
   height="80"
   id="svg2"
   sodipodi:version="0.32"
   inkscape:version="0.47 r22583"
   version="1.0"
   sodipodi:docname="flosscamp_button.svg"
   inkscape:output_extension="org.inkscape.output.svg.inkscape"
   inkscape:export-filename="flosscamb_button.png"
   inkscape:export-xdpi="90"
   inkscape:export-ydpi="90">
  <defs
     id="defs4">
    <inkscape:perspective
       sodipodi:type="inkscape:persp3d"
       inkscape:vp_x="0 : 40 : 1"
       inkscape:vp_y="0 : 1000 : 0"
       inkscape:vp_z="120 : 40 : 1"
       inkscape:persp3d-origin="60 : 26.666667 : 1"
       id="perspective33" />
    <linearGradient
       id="linearGradient3648">
      <stop
         style="stop-color:#799034;stop-opacity:1;"
         offset="0"
         id="stop3650" />
      <stop
         id="stop3656"
         offset="0.5"
         style="stop-color:#94b040;stop-opacity:1;" />
      <stop
         style="stop-color:#728831;stop-opacity:1;"
         offset="1"
         id="stop3652" />
    </linearGradient>
    <filter
       inkscape:collect="always"
       id="filter3760">
      <feGaussianBlur
         inkscape:collect="always"
         stdDeviation="0.92439722"
         id="feGaussianBlur3762" />
    </filter>
    <linearGradient
       inkscape:collect="always"
       xlink:href="#linearGradient3648"
       id="linearGradient3785"
       gradientUnits="userSpaceOnUse"
       gradientTransform="translate(212.78,-1691.6534)"
       x1="-177.78"
       y1="1693.653"
       x2="-177.78"
       y2="1752.7841" />
  </defs>
  <sodipodi:namedview
     id="base"
     pagecolor="#ffffff"
     bordercolor="#666666"
     borderopacity="1.0"
     gridtolerance="10000"
     guidetolerance="10"
     objecttolerance="10"
     inkscape:pageopacity="0"
     inkscape:pageshadow="2"
     inkscape:zoom="2"
     inkscape:cx="148.88628"
     inkscape:cy="39.364731"
     inkscape:document-units="px"
     inkscape:current-layer="g3764"
     showgrid="false"
     width="1052.36px"
     units="m"
     inkscape:window-width="1280"
     inkscape:window-height="759"
     inkscape:window-x="158"
     inkscape:window-y="54"
     showguides="true"
     inkscape:guide-bbox="true"
     inkscape:window-maximized="0" />
  <metadata
     id="metadata7">
    <rdf:RDF>
      <cc:Work
         rdf:about="">
        <dc:format>image/svg+xml</dc:format>
        <dc:type
           rdf:resource="http://purl.org/dc/dcmitype/StillImage" />
        <dc:title></dc:title>
      </cc:Work>
    </rdf:RDF>
  </metadata>
  <g
     inkscape:label="Layer 1"
     inkscape:groupmode="layer"
     id="layer1"
     transform="translate(0,-1691.6534)">
    <g
       id="g3222"
       transform="translate(212.78,0)">
      <g
         id="g3764"
         transform="translate(0,1.4080722)">
        <g
           id="g2839"
           inkscape:export-filename="/home/stas/Desktop/fc/flosscamp2010_125.png"
           inkscape:export-xdpi="94.479965"
           inkscape:export-ydpi="94.479965">
          <path
             style="fill:#000000;fill-opacity:0.51239672;stroke:none;filter:url(#filter3760)"
             d="m -125.2362,1694.841 c -0.45115,-6e-4 -0.89259,0 -1.34375,0.031 0.10267,1.2541 0.26773,2.5238 0.375,3.7812 l -18.375,0 -55.625,0 c -4.95204,0 -8.9375,3.9856 -8.9375,8.9376 l 0,34.4691 c 0,4.952 3.98546,8.9376 8.9375,8.9376 l 1.78125,0 c 0.32983,6.593 -2.5494,10.5104 -5.15625,14.6563 9.66456,-1.7689 18.28286,-6.0386 25.09375,-14.6563 l 33.90625,0 40.5625,0 c 0.31987,0 0.62651,0 0.9375,-0.031 4.503596,-0.4698 8.000006,-4.2742 8.000006,-8.9063 l 0,-34.4691 c 0,-4.6322 -3.49641,-8.4365 -8.000006,-8.9063 -0.0104,0 -0.0209,10e-4 -0.0313,0 -0.30121,-0.03 -0.59675,-0.031 -0.90625,-0.031 l -18.28125,0 c -0.17204,-0.2538 -0.3652,-0.4927 -0.53125,-0.75 -0.66293,-1.0108 -1.18455,-2.1131 -1.9375,-3.0625 -0.15039,-0.01 -0.31836,0 -0.46875,0 z"
             id="path3661" />
          <path
             style="fill:url(#linearGradient3785);fill-opacity:1;stroke:none"
             d="M 11.875,6 C 6.9229646,6 2.9375,9.9854646 2.9375,14.9375 l 0,34.46875 c 0,4.952035 3.9854646,8.9375 8.9375,8.9375 l 1.78125,0 C 13.986076,64.936833 11.106851,68.854148 8.5,73 18.164564,71.231116 26.782865,66.961465 33.59375,58.34375 l 74.46875,0 c 4.95204,0 8.9375,-3.985465 8.9375,-8.9375 L 117,14.9375 C 117,9.9854646 113.01454,6 108.0625,6 L 11.875,6 z"
             transform="translate(-212.78,1691.6534)"
             id="rect3787" />
          <path
             id="flowRoot2417"
             d="m -201.23431,1736.9655 -3.71309,0 0,2.9311 3.38248,0 0,0.9091 -3.38248,0 0,4.2218 -1.04272,0 0,-8.9712 4.75581,0 0,0.9092 m 7.93484,8.062 -4.88298,0 0,-8.9712 1.04272,0 0,8.062 3.84026,0 0,0.9092 m 5.18816,-9.1429 c 1.00457,0 1.76965,0.3984 2.29525,1.1954 0.52983,0.7925 0.79474,1.9476 0.79475,3.465 -1e-5,1.5091 -0.2628,2.6619 -0.78839,3.4589 -0.52561,0.7968 -1.29281,1.1953 -2.30161,1.1953 -1.00034,0 -1.76542,-0.3964 -2.29526,-1.189 -0.52559,-0.7969 -0.78839,-1.9519 -0.78839,-3.4652 0,-1.5131 0.2628,-2.6682 0.78839,-3.465 0.5256,-0.797 1.29068,-1.1954 2.29526,-1.1954 m 0,8.3989 c 1.32247,0 1.9837,-1.2461 1.9837,-3.7385 0,-2.4965 -0.66123,-3.7448 -1.9837,-3.7448 -0.64429,0 -1.13598,0.3243 -1.47507,0.9727 -0.33486,0.6444 -0.50229,1.5684 -0.50228,2.7721 -1e-5,1.2166 0.16742,2.1449 0.50228,2.7849 0.33485,0.6358 0.82655,0.9536 1.47507,0.9536 m 9.73416,-7.2354 c -0.53409,-0.1822 -1.04061,-0.2733 -1.51957,-0.2733 -0.54256,0 -0.98551,0.125 -1.32884,0.375 -0.3391,0.246 -0.50864,0.5978 -0.50864,1.0555 0,0.5425 0.44718,1.0194 1.34154,1.4306 0.66124,0.3052 1.09782,0.5171 1.30976,0.6358 0.21616,0.1186 0.43446,0.2818 0.65487,0.4895 0.22041,0.2077 0.39632,0.4536 0.52773,0.7376 0.13563,0.2797 0.20345,0.5955 0.20345,0.9473 0,0.8732 -0.29459,1.5514 -0.88377,2.0346 -0.58494,0.4789 -1.27585,0.7185 -2.07271,0.7185 -0.77145,0 -1.44752,-0.1526 -2.02822,-0.4578 l 0.21617,-0.8965 c 0.68243,0.3094 1.27796,0.4641 1.78662,0.4641 0.59341,0 1.06814,-0.1526 1.42419,-0.4577 0.36029,-0.3095 0.54043,-0.7334 0.54043,-1.2716 0,-0.3985 -0.11657,-0.7355 -0.34969,-1.011 -0.23313,-0.2797 -0.66336,-0.5638 -1.29067,-0.852 -0.64429,-0.2966 -1.0618,-0.498 -1.25254,-0.6039 -0.1865,-0.1103 -0.37301,-0.2607 -0.55951,-0.4514 -0.1865,-0.1909 -0.33061,-0.4049 -0.43235,-0.6423 -0.10173,-0.2373 -0.15259,-0.4958 -0.15259,-0.7756 0,-0.7418 0.26704,-1.3204 0.80111,-1.7358 0.53408,-0.4154 1.21015,-0.6231 2.02822,-0.6231 0.59765,0 1.19107,0.091 1.78025,0.2735 l -0.23524,0.89 m 7.80767,0 c -0.53409,-0.1822 -1.04061,-0.2733 -1.51958,-0.2733 -0.54255,0 -0.9855,0.125 -1.32883,0.375 -0.33909,0.246 -0.50864,0.5978 -0.50864,1.0555 0,0.5425 0.44718,1.0194 1.34155,1.4306 0.66123,0.3052 1.09781,0.5171 1.30975,0.6358 0.21618,0.1186 0.43446,0.2818 0.65488,0.4895 0.2204,0.2077 0.39631,0.4536 0.52772,0.7376 0.13563,0.2797 0.20345,0.5955 0.20345,0.9473 0,0.8732 -0.29459,1.5514 -0.88377,2.0346 -0.58493,0.4789 -1.27585,0.7185 -2.07271,0.7185 -0.77145,0 -1.44752,-0.1526 -2.02821,-0.4578 l 0.21616,-0.8965 c 0.68244,0.3094 1.27796,0.4641 1.78662,0.4641 0.59341,0 1.06814,-0.1526 1.4242,-0.4577 0.36028,-0.3095 0.54043,-0.7334 0.54043,-1.2716 0,-0.3985 -0.11657,-0.7355 -0.3497,-1.011 -0.23313,-0.2797 -0.66335,-0.5638 -1.29067,-0.852 -0.64429,-0.2966 -1.0618,-0.498 -1.25254,-0.6039 -0.1865,-0.1103 -0.37301,-0.2607 -0.55951,-0.4514 -0.1865,-0.1909 -0.33061,-0.4049 -0.43235,-0.6423 -0.10173,-0.2373 -0.15259,-0.4958 -0.15259,-0.7756 0,-0.7418 0.26704,-1.3204 0.80111,-1.7358 0.53408,-0.4154 1.21015,-0.6231 2.02822,-0.6231 0.59766,0 1.19107,0.091 1.78025,0.2735 l -0.23524,0.89 m 8.79952,7.4199 c -0.70363,0.4874 -1.51958,0.7312 -2.44785,0.7312 -1.1614,0 -2.04517,-0.3985 -2.6513,-1.1953 -0.6019,-0.797 -0.90284,-1.9498 -0.90284,-3.4589 0,-1.458 0.29247,-2.5982 0.87741,-3.4205 0.58494,-0.8266 1.47718,-1.2399 2.67673,-1.2399 0.43235,0 0.86045,0.056 1.28433,0.1654 0.42386,0.1102 0.76507,0.2564 1.02364,0.4386 l -0.34333,0.8202 c -0.59767,-0.3391 -1.25254,-0.5086 -1.96464,-0.5086 -0.82654,0 -1.44116,0.3009 -1.84383,0.9029 -0.40268,0.5976 -0.60401,1.545 -0.60401,2.8419 0,2.4924 0.81595,3.7385 2.44784,3.7385 0.6909,0 1.39876,-0.2118 2.12359,-0.6357 l 0.32426,0.8202 m 7.636,0.5595 -0.98549,0 c -0.0805,-0.2671 -0.12081,-0.6231 -0.12081,-1.0681 -0.56374,0.8265 -1.33095,1.2398 -2.3016,1.2398 -0.4917,0 -0.92616,-0.1738 -1.30341,-0.5214 -0.373,-0.3518 -0.5595,-0.8033 -0.5595,-1.3543 0,-0.3263 0.0657,-0.6146 0.1971,-0.8647 0.1314,-0.25 0.32425,-0.4599 0.57858,-0.6294 0.25431,-0.1738 0.56374,-0.3095 0.92827,-0.4069 0.36453,-0.1018 0.79687,-0.1716 1.29704,-0.2099 l 1.11266,-0.089 0,-0.318 c 0,-1.1359 -0.52984,-1.7039 -1.58951,-1.7039 -0.25009,0 -0.56799,0.055 -0.95371,0.1653 -0.38147,0.106 -0.70997,0.2332 -0.98549,0.3815 l -0.26068,-0.7121 c 0.90284,-0.462 1.7421,-0.693 2.51778,-0.693 1.50898,0 2.26346,0.799 2.26346,2.3969 l 0,2.8484 c 0,0.5765 0.0551,1.0894 0.16531,1.5387 m -1.15716,-1.9647 0,-1.2016 c -0.89437,0.081 -1.50898,0.1569 -1.84383,0.2289 -0.33063,0.068 -0.61885,0.197 -0.86469,0.3879 -0.24162,0.1907 -0.36241,0.4492 -0.36241,0.7755 0,0.2968 0.10385,0.5363 0.31155,0.7186 0.20769,0.1822 0.4726,0.2733 0.79475,0.2733 0.3518,0 0.7015,-0.1038 1.04908,-0.3115 0.34756,-0.212 0.65275,-0.5023 0.91555,-0.8711 m 9.32089,1.9647 -0.99186,0 0,-4.3489 c -1e-5,-1.0512 -0.19499,-1.5768 -0.58494,-1.5768 -0.19922,0 -0.41963,0.1823 -0.66123,0.5468 -0.23738,0.3603 -0.35606,0.5595 -0.35605,0.5976 l 0,4.7813 -0.9855,0 0,-4.3489 c -1e-5,-1.0512 -0.1971,-1.5768 -0.5913,-1.5768 -0.19498,0 -0.41327,0.1823 -0.65488,0.5468 -0.23737,0.3603 -0.35605,0.5595 -0.35604,0.5976 l 0,4.7813 -0.99186,0 0,-6.6251 0.9537,0 0,0.9982 c 0.1865,-0.3518 0.40692,-0.6315 0.66124,-0.8392 0.25856,-0.212 0.515,-0.3179 0.76933,-0.3179 0.26703,0 0.50652,0.1059 0.71846,0.3179 0.21192,0.2077 0.35816,0.4874 0.43869,0.8392 0.18651,-0.3518 0.40903,-0.6315 0.6676,-0.8392 0.25856,-0.212 0.51288,-0.3179 0.76297,-0.3179 0.8011,0 1.20166,0.7163 1.20167,2.149 l 0,4.635"
             style="font-size:900px;font-style:normal;font-weight:normal;fill:#ffffff;fill-opacity:1;stroke:#ffffff;stroke-width:0.5;stroke-miterlimit:4;stroke-dasharray:none;font-family:Bitstream Vera Sans"
             sodipodi:nodetypes="cccccccccccccccccccsssssssccsssssccssssssssssccssssssssssscccssssssssssccssssssssssscccssssssccsssscccccsssssscccssccscccccssssssccccssccccssccccccssscsscc" />
          <path
             sodipodi:nodetypes="ccaccaccaccsc"
             style="fill:#ffffff;fill-opacity:1;stroke:none"
             d="m 67.5,8.0294277 0,48.5625003 c 0,0 -0.05621,1.022425 0.244756,1.37954 0.315151,0.37394 1.380244,0.497282 1.380244,0.497282 0,0 37.99992,-0.01782 37.99992,-0.01782 0,0 1.06664,-0.09135 1.39854,-0.45167 C 108.99488,57.487473 109,55.966928 109,55.966928 L 109,8.8419277 C 109,8.0672069 109.27509,7.1008739 108.75,6.53125 108.14621,5.8762566 106.12515,6.02892 106.12515,6.02892 L 69.375,6 c 0,0 -0.947135,-0.100623 -1.523982,0.5209809 C 67.277269,7.1392475 67.5,8.0294277 67.5,8.0294277 z"
             transform="translate(-212.78,1691.6534)"
             id="rect2845" />
          <g
             transform="matrix(0.40921044,0,0,0.40921044,-145.77918,1692.96)"
             id="g2396">
            <path
               style="fill:#3b5635"
               d="m 361.03125,58.3125 c -8.20364,-0.01046 -16.42136,0.528987 -24.625,1.03125 3.79488,46.35698 11.74878,92.77098 7.65625,139.5 -4.7622,56.8486 -19.47319,113.1859 -45.21875,164.15625 -21.4297,42.11553 -39.31067,86.76944 -44.59375,134.09375 -5.80394,57.29506 -8.70942,116.81955 10.5625,172.03125 -51.64016,-18.67666 -101.92369,-49.84579 -159.21875,-41.4375 4.16693,14.43554 8.34203,28.86517 12.0625,43.375 45.31524,14.1378 95.82777,-3.36741 138.6875,19.625 10.86367,6.39921 21.13775,13.56352 31.40625,20.78125 C 237.52362,732.37769 181.86328,725.01101 130,739 96.218165,752.91435 59.900787,760.34573 26.9375,776.34375 c -15.55152,5.6549 -9.978948,25.21346 -13.625,37.9375 86.686754,2.9023 174.19736,-4.81697 257.3125,-30.5625 14.88178,-4.39038 29.77437,-9.09794 44.65625,-13.5625 -5.65501,15.40254 -11.32403,30.80856 -17.5,46.0625 -17.11395,47.47345 -31.18554,97.63305 -64,137.21875 -17.85827,23.88532 -46.18003,35.50907 -72,48.5313 23.73661,0.2976 52.44528,6.8434 70.75,-12.87505 23.7365,-24.48082 39.73405,-55.15156 56.625,-84.46875 C 307.31194,874.04283 307.09657,833.70382 335,809 c 20.31378,-19.57001 38.08238,-41.4391 53.1875,-65.25 34.60017,10.26828 62.07407,33.923 92.65625,51.78125 52.1608,23.66187 109.90176,34.30771 158.9375,65.1875 14.36113,10.9383 31.38019,0.83396 43.0625,-9.0625 0.52087,-15.32813 -16.5202,-21.07837 -26.9375,-28.59375 -48.51474,-30.95389 -112.3414,-34.66091 -151.40625,-80.125 59.82487,-10.9383 120.52622,-4.03304 180.5,1.25 15.32835,0.0743 38.48465,3.20794 46,-13.90625 5.35737,-27.30827 6.10878,-55.78857 3.28125,-83.46875 -2.82767,-16.07222 -9.01381,-37.75131 -28.0625,-40.28125 -18.37913,-2.90175 -33.4142,11.18256 -48.59375,19.21875 -45.09191,30.43357 -98.74228,44.4862 -152.09375,51.40625 7.29202,-12.87272 15.26896,-25.38757 21.59375,-38.78125 9.67301,-24.62931 16.30032,-50.28121 21.0625,-76.25 1.48797,-8.92935 2.80946,-17.93395 4,-26.9375 5.28285,-65.10827 3.3659,-131.94273 -19.03125,-194 -9.3014,-24.55501 -20.10649,-48.56703 -30.375,-72.75 C 478.30054,212.10955 437.66268,165.38109 404.625,114.1875 392.57056,95.808421 382.91007,75.794188 369.21875,58.53125 c -2.73466,-0.148819 -5.45295,-0.215262 -8.1875,-0.21875 z m 10.5,54.3125 c 21.57871,22.91807 40.09128,48.36437 56.3125,75.375 17.93266,30.28461 42.94739,57.59006 51.28125,92.5625 29.54051,54.91404 53.80802,114.9708 54.03125,178.21875 0.4464,52.01215 3.12806,107.7307 -22.46875,154.90625 -18.15596,29.01974 -40.34763,58.25522 -73.90625,69.9375 -11.1614,4.83663 -22.17498,9.897 -33.1875,15.03125 -20.31379,2.38112 -40.69368,3.11614 -61.15625,2 -10.56614,-3.64608 -21.20316,-7.19026 -31.84375,-10.6875 l -0.6875,-5.375 c -36.4605,-33.85625 -38.67406,-86.81856 -39.34375,-133.25 -0.59535,-54.61659 16.67132,-107.23653 38.25,-156.71875 14.73312,-32.96338 23.50482,-68.53229 41.4375,-100.15625 3.49725,-32.51688 15.10546,-63.68999 18.15625,-96.28125 2.75314,-28.49879 2.08323,-57.06372 3.125,-85.5625 z m 37.78125,479.15625 c 0.15438,2.55225 0.29501,5.10291 0.40625,7.65625 -0.11094,-2.54975 -0.25102,-5.10642 -0.40625,-7.65625 z m 0.40625,7.65625 c 0.22247,5.10669 0.35399,10.20453 0.40625,15.3125 -0.0519,-5.10758 -0.18405,-10.20602 -0.40625,-15.3125 z M 694,640.09375 c 47.33549,-1.23943 11.45683,102.68707 -67.03125,77.46875 C 599.78003,713.71719 523.50018,714.5559 496.0625,712.71875 524.18912,694.41404 619.02487,669.28937 650.5,658.5 669.28292,645.6759 683.63126,640.36526 694,640.09375 z m -285.03125,12.9375 c -0.35953,5.09311 -0.82499,10.17005 -1.34375,15.25 0.51895,-5.08056 0.98376,-10.15694 1.34375,-15.25 z m -3.125,30.46875 c -0.33043,2.47881 -0.66396,4.96357 -1.03125,7.4375 0.36919,-2.47591 0.69898,-4.95673 1.03125,-7.4375 z m 12.125,49.375 c 38.61849,16.66759 76.02023,36.32599 110.84375,60.0625 -42.04143,-9.15256 -77.73165,-33.79606 -110.84375,-60.0625 z m -99.25,5.75 c 2.99085,0.007 5.97842,0.0206 8.96875,0.0625 -86.46355,40.55301 -183.70556,56.63396 -278.875,56.1875 39.288092,-29.39188 88.76647,-37.4935 135.71875,-46.125 44.43631,-6.48765 89.32609,-10.23454 134.1875,-10.125 z m 47,16.375 c -5.5063,17.63479 -17.54961,31.40566 -33.25,40.78125 5.28306,-17.7841 15.61496,-33.34031 33.25,-40.78125 z M 594,809.59375 c 25.59704,7.21798 50.31731,18.3783 69.8125,36.90625 C 637.47172,840.99385 614.16487,827.00556 594,809.59375 z"
               id="path6"
               transform="matrix(0.134392,0,0,0.134392,0,-5.71428)"
               inkscape:export-filename="/home/stas/Desktop/flosscamp.png"
               inkscape:export-xdpi="12.477079"
               inkscape:export-ydpi="12.477079" />
            <path
               style="fill:#94b040"
               d="m 371.53125,112.625 c -1.04176,28.49879 -0.37186,57.0637 -3.125,85.5625 -3.05079,32.59128 -14.659,63.76436 -18.15625,96.28125 -4.24134,45.31535 -6.71461,91.97356 -25.09375,134.3125 -8.03619,20.01614 -20.60393,38.5463 -24.25,60.125 -6.25036,65.25703 -1.04527,131.02574 9,195.6875 l 0.6875,5.375 c 10.64058,3.49724 21.27761,7.04142 31.84375,10.6875 1.64192,-2.44889 3.22673,-4.89525 4.8125,-7.375 1.57632,-2.46481 3.16219,-4.94477 4.6875,-7.4375 0.005,-0.008 -0.005,-0.0236 0,-0.0313 1.52507,-2.49267 3.02133,-4.98196 4.5,-7.5 0.005,-0.008 -0.005,-0.0235 0,-0.0313 1.48307,-2.52583 2.96523,-5.04498 4.40625,-7.59375 2.88733,-5.10565 5.65957,-10.2553 8.40625,-15.4375 1.36645,-2.57872 2.72402,-5.15614 4.0625,-7.75 0.004,-0.008 -0.004,-0.023 0,-0.0313 1.34262,-2.60209 2.6809,-5.19776 4,-7.8125 1.32379,-2.62311 2.63271,-5.24177 3.9375,-7.875 1.30018,-2.62474 2.58907,-5.24275 3.875,-7.875 2.57277,-5.26457 5.11296,-10.5335 7.65625,-15.8125 5.08506,-10.55777 10.15369,-21.13327 15.34375,-31.625 0.72551,7.64551 1.26049,15.30912 1.59375,22.96875 0.22219,5.10646 0.3544,10.20492 0.40625,15.3125 0.0518,5.0972 0.021,10.21823 -0.0937,15.3125 -2.1e-4,0.0104 2.4e-4,0.0208 0,0.0313 -0.11526,5.10472 -0.31453,10.18355 -0.59375,15.28125 -0.13959,2.54887 -0.28876,5.10991 -0.46875,7.65625 -0.53996,7.63905 -1.26001,15.26769 -2.15625,22.875 -0.8962,7.60731 -1.97704,15.18814 -3.21875,22.75 11.01254,-5.13425 22.0261,-10.19462 33.1875,-15.03125 4.09255,-52.68183 13.62375,-105.21418 33.9375,-154.25 1.71142,31.69833 0.0791,63.38793 -3.34375,94.9375 6.10157,0.22329 18.22283,0.6012 24.25,0.75 2.6043,-50.37511 10.56229,-100.29299 13.6875,-150.59375 C 510.96759,408.61642 491.03051,344.62897 479.125,280.5625 470.79114,245.59006 445.77641,218.28462 427.84375,188 411.62252,160.98937 393.10997,135.54308 371.53125,112.625 z m 33.5625,84.4375 C 435.52717,260.38488 456.4373,330.03431 459.5625,400.5 442.0763,355.6311 429.62913,308.97748 411.25,264.40625 c -9.44994,-21.2067 -7.27239,-44.79772 -6.15625,-67.34375 z m -23,94.875 c 2.90195,58.18818 3.05935,116.44874 5.8125,174.5625 2.90196,68.08464 -9.54194,139.95341 -52.625,194.71875 -11.83109,-64.88502 1.28371,-130.86203 9.46875,-195.375 3.12519,25.07598 -8.27883,61.98312 24.3125,70.09375 3.42283,-70.46573 -3.05384,-141.00302 1.1875,-211.46875 -0.0744,-12.05434 6.26304,-22.41157 11.84375,-32.53125 z m 27.6875,39.15625 c 31.54961,67.11731 44.03081,144.5594 27.4375,217.40625 -23.14134,-69.79604 -34.5064,-143.88972 -27.4375,-217.40625 z"
               id="path8"
               inkscape:export-filename="/home/stas/Desktop/flosscamp.png"
               inkscape:export-xdpi="12.477079"
               inkscape:export-ydpi="12.477079"
               transform="matrix(0.134392,0,0,0.134392,0,-5.71428)" />
            <path
               style="fill:#94b040"
               d="m 71.558295,40.138415 c 3.009996,8.339997 3.267639,17.321957 2.557638,26.071951 0.369999,-2.51 0.88211,-5.012327 1.43211,-7.492326 0.189996,4.449997 -0.0096,8.911559 -0.579564,13.321557 -0.350005,-0.549999 -1.050112,-1.65906 -1.390112,-2.20906 -0.640002,3.489996 -1.530619,6.937351 -2.830621,10.247352 6.069995,-5.459995 8.599155,-14.159006 7.089152,-22.099002 C 76.716902,51.79889 75.848295,45.048414 71.558295,40.138415 z"
               id="path20"
               inkscape:export-filename="/home/stas/Desktop/flosscamp.png"
               inkscape:export-xdpi="12.477079"
               inkscape:export-ydpi="12.477079" />
            <path
               d="m 16.55,82.01 c 3.85,-0.74 8.02,-0.77 11.19,1.88 -3.85,0.63 -7.95,0.59 -11.19,-1.88 z"
               id="path28"
               style="fill:#94b040"
               inkscape:export-filename="/home/stas/Desktop/flosscamp.png"
               inkscape:export-xdpi="12.477079"
               inkscape:export-ydpi="12.477079" />
            <path
               d="m 34.45,87.11 c 1.46,0.86 2.84,1.82 4.22,2.79 -6.75,2.81 -14.23,1.82 -21.2,3.7 C 13.03,92.96 8.52,92.74 4.09,93.57 4.22,93.11 4.49,92.18 4.62,91.72 14.52,89.89 24.77,90 34.45,87.11 z"
               id="path32"
               style="fill:#94b040"
               inkscape:export-filename="/home/stas/Desktop/flosscamp.png"
               inkscape:export-xdpi="12.477079"
               inkscape:export-ydpi="12.477079" />
            <path
               d="m 36.37,99.61 c 2,-0.59 4,-1.22 6,-1.82 -0.76,2.07 -1.52,4.14 -2.35,6.19 -5.21,7.2 -10.45,14.38 -15.38,21.77 -0.97,-0.28 -1.94,-0.56 -2.91,-0.83 3.37,-6.78 7.89,-12.88 12.02,-19.21 1.23,-1.86 2.02,-3.96 2.62,-6.1 z"
               id="path42"
               style="fill:#94b040"
               inkscape:export-filename="/home/stas/Desktop/flosscamp.png"
               inkscape:export-xdpi="12.477079"
               inkscape:export-ydpi="12.477079" />
            <path
               d="m 66.399152,90.100116 c 3.78,-2.46 16.52431,-5.83454 20.75431,-7.284543 14.048048,-9.591427 9.69609,12.065723 -3.16261,7.934203 -3.65395,-0.51676 -13.9043,-0.40276 -17.5917,-0.64966 z"
               id="path2430"
               style="fill:#94b040"
               sodipodi:nodetypes="cccc"
               inkscape:export-filename="/home/stas/Desktop/flosscamp.png"
               inkscape:export-xdpi="12.477079"
               inkscape:export-ydpi="12.477079" />
          </g>
          <path
             style="fill:#3b5635;fill-opacity:1;stroke:#3b5635;stroke-width:0.5;stroke-miterlimit:4;stroke-opacity:1;stroke-dasharray:none"
             d="m 72.0625,46.59375 c -0.41539,0 -0.81026,0.09465 -1.1875,0.28125 -0.37301,0.1864 -0.68584,0.41355 -0.90625,0.71875 l 0,-0.84375 -0.96875,0 0,9.25 0.96875,0 0,-3.59375 c 0.2077,0.3391 0.4877,0.63605 0.84375,0.84375 0.36028,0.2035 0.77635,0.28125 1.1875,0.28125 0.77145,0 1.35894,-0.326 1.8125,-1 C 74.27026,51.85315 74.49999,51.0173 74.5,50 c -1e-5,-1.0088 -0.21967,-1.84135 -0.65625,-2.46875 -0.43235,-0.6315 -1.01829,-0.9375 -1.78125,-0.9375 z M 71.75,47.4375 c 0.5383,0 0.9803,0.2668 1.28125,0.75 0.30094,0.4832 0.43749,1.08075 0.4375,1.84375 -1e-5,0.7417 -0.15086,1.3748 -0.46875,1.875 -0.31367,0.5002 -0.74718,0.75 -1.28125,0.75 -0.3391,0 -0.65085,-0.125 -0.96875,-0.375 -0.31791,-0.2501 -0.59474,-0.5645 -0.78125,-0.9375 l 0,-2.75 C 70.4562,47.83085 71.05061,47.4375 71.75,47.4375 z"
             transform="translate(-212.78,1691.6534)"
             id="path2863" />
          <text
             xml:space="preserve"
             style="font-size:14px;font-style:normal;font-variant:normal;font-weight:normal;font-stretch:normal;text-align:center;line-height:89.99999762%;writing-mode:lr-tb;text-anchor:middle;fill:#ffffff;fill-opacity:1;stroke:none;font-family:Silkscreen;-inkscape-font-specification:Silkscreen"
             x="-183.97238"
             y="1734.0226"
             id="text2868"
             sodipodi:linespacing="89.999998%"><tspan
               sodipodi:role="line"
               id="tspan2870"
               x="-183.97238"
               y="1734.0226"
               style="font-size:10px;fill:#ffffff">MERG LA</tspan></text>
          <text
             sodipodi:linespacing="89.999998%"
             id="text3644"
             y="1748.7726"
             x="-117.97238"
             style="font-size:14px;font-style:normal;font-variant:normal;font-weight:normal;font-stretch:normal;text-align:center;line-height:89.99999762%;writing-mode:lr-tb;text-anchor:middle;fill:#3b5635;fill-opacity:1;stroke:none;font-family:Silkscreen;-inkscape-font-specification:Silkscreen"
             xml:space="preserve"><tspan
               style="font-size:10px;fill:#3b5635;fill-opacity:1"
               y="1748.7726"
               x="-117.97238"
               id="tspan3646"
               sodipodi:role="line">2010</tspan></text>
        </g>
      </g>
    </g>
  </g>
</svg>
