<?xml version="1.0" encoding="UTF-8" standalone="no"?>
<svg
   xmlns:dc="http://purl.org/dc/elements/1.1/"
   xmlns:cc="http://creativecommons.org/ns#"
   xmlns:rdf="http://www.w3.org/1999/02/22-rdf-syntax-ns#"
   xmlns:svg="http://www.w3.org/2000/svg"
   xmlns="http://www.w3.org/2000/svg"
   xmlns:sodipodi="http://sodipodi.sourceforge.net/DTD/sodipodi-0.dtd"
   xmlns:inkscape="http://www.inkscape.org/namespaces/inkscape"
   width="744.09448"
   height="1052.3622"
   viewBox="0 0 100 130"
   version="1.0"
   id="svg2"
   sodipodi:version="0.32"
   inkscape:version="0.46"
   sodipodi:docname="flosscamp.svg"
   inkscape:output_extension="org.inkscape.output.svg.inkscape">
  <metadata
     id="metadata49">
    <rdf:RDF>
      <cc:Work
         rdf:about="">
        <dc:format>image/svg+xml</dc:format>
        <dc:type
           rdf:resource="http://purl.org/dc/dcmitype/StillImage" />
      </cc:Work>
    </rdf:RDF>
  </metadata>
  <defs
     id="defs47">
    <inkscape:perspective
       sodipodi:type="inkscape:persp3d"
       inkscape:vp_x="0 : 81.25 : 1"
       inkscape:vp_y="0 : 1000 : 0"
       inkscape:vp_z="125 : 81.25 : 1"
       inkscape:persp3d-origin="62.5 : 54.166667 : 1"
       id="perspective51" />
  </defs>
  <sodipodi:namedview
     inkscape:window-height="731"
     inkscape:window-width="1280"
     inkscape:pageshadow="2"
     inkscape:pageopacity="0.0"
     guidetolerance="10.0"
     gridtolerance="10.0"
     objecttolerance="10.0"
     borderopacity="1.0"
     bordercolor="#666666"
     pagecolor="#ffffff"
     id="base"
     showgrid="false"
     inkscape:zoom="0.38307692"
     inkscape:cx="346.49149"
     inkscape:cy="175.81266"
     inkscape:window-x="0"
     inkscape:window-y="25"
     inkscape:current-layer="svg2" />
  <path
     style="fill:#3b5635"
     d="M 361.03125 58.3125 C 352.82761 58.302036 344.60989 58.841487 336.40625 59.34375 C 340.20113 105.70073 348.15503 152.11473 344.0625 198.84375 C 339.3003 255.69235 324.58931 312.02965 298.84375 363 C 277.41405 405.11553 259.53308 449.76944 254.25 497.09375 C 248.44606 554.38881 245.54058 613.9133 264.8125 669.125 C 213.17234 650.44834 162.88881 619.27921 105.59375 627.6875 C 109.76068 642.12304 113.93578 656.55267 117.65625 671.0625 C 162.97149 685.2003 213.48402 667.69509 256.34375 690.6875 C 267.20742 697.08671 277.4815 704.25102 287.75 711.46875 C 237.52362 732.37769 181.86328 725.01101 130 739 C 96.218165 752.91435 59.900787 760.34573 26.9375 776.34375 C 11.38598 781.99865 16.958552 801.55721 13.3125 814.28125 C 99.999254 817.18355 187.50986 809.46428 270.625 783.71875 C 285.50678 779.32837 300.39937 774.62081 315.28125 770.15625 C 309.62624 785.55879 303.95722 800.96481 297.78125 816.21875 C 280.6673 863.6922 266.59571 913.8518 233.78125 953.4375 C 215.92298 977.32282 187.60122 988.94657 161.78125 1001.9688 C 185.51786 1002.2664 214.22653 1008.8122 232.53125 989.09375 C 256.26775 964.61293 272.2653 933.94219 289.15625 904.625 C 307.31194 874.04283 307.09657 833.70382 335 809 C 355.31378 789.42999 373.08238 767.5609 388.1875 743.75 C 422.78767 754.01828 450.26157 777.673 480.84375 795.53125 C 533.00455 819.19312 590.74551 829.83896 639.78125 860.71875 C 654.14238 871.65705 671.16144 861.55271 682.84375 851.65625 C 683.36462 836.32812 666.32355 830.57788 655.90625 823.0625 C 607.39151 792.10861 543.56485 788.40159 504.5 742.9375 C 564.32487 731.9992 625.02622 738.90446 685 744.1875 C 700.32835 744.2618 723.48465 747.39544 731 730.28125 C 736.35737 702.97298 737.10878 674.49268 734.28125 646.8125 C 731.45358 630.74028 725.26744 609.06119 706.21875 606.53125 C 687.83962 603.6295 672.80455 617.71381 657.625 625.75 C 612.53309 656.18357 558.88272 670.2362 505.53125 677.15625 C 512.82327 664.28353 520.80021 651.76868 527.125 638.375 C 536.79801 613.74569 543.42532 588.09379 548.1875 562.125 C 549.67547 553.19565 550.99696 544.19105 552.1875 535.1875 C 557.47035 470.07923 555.5534 403.24477 533.15625 341.1875 C 523.85485 316.63249 513.04976 292.62047 502.78125 268.4375 C 478.30054 212.10955 437.66268 165.38109 404.625 114.1875 C 392.57056 95.808421 382.91007 75.794188 369.21875 58.53125 C 366.48409 58.382431 363.7658 58.315988 361.03125 58.3125 z M 371.53125 112.625 C 393.10996 135.54307 411.62253 160.98937 427.84375 188 C 445.77641 218.28461 470.79114 245.59006 479.125 280.5625 C 508.66551 335.47654 532.93302 395.5333 533.15625 458.78125 C 533.60265 510.7934 536.28431 566.51195 510.6875 613.6875 C 492.53154 642.70724 470.33987 671.94272 436.78125 683.625 C 425.61985 688.46163 414.60627 693.522 403.59375 698.65625 C 383.27996 701.03737 362.90007 701.77239 342.4375 700.65625 C 331.87136 697.01017 321.23434 693.46599 310.59375 689.96875 L 309.90625 684.59375 C 273.44575 650.7375 271.23219 597.77519 270.5625 551.34375 C 269.96715 496.72716 287.23382 444.10722 308.8125 394.625 C 323.54562 361.66162 332.31732 326.09271 350.25 294.46875 C 353.74725 261.95187 365.35546 230.77876 368.40625 198.1875 C 371.15939 169.68871 370.48948 141.12378 371.53125 112.625 z M 409.3125 591.78125 C 409.46688 594.3335 409.60751 596.88416 409.71875 599.4375 C 409.60781 596.88775 409.46773 594.33108 409.3125 591.78125 z M 409.71875 599.4375 C 409.94122 604.54419 410.07274 609.64203 410.125 614.75 C 410.07315 609.64242 409.94095 604.54398 409.71875 599.4375 z M 694 640.09375 C 741.33549 638.85432 705.45683 742.78082 626.96875 717.5625 C 599.78003 713.71719 523.50018 714.5559 496.0625 712.71875 C 524.18912 694.41404 619.02487 669.28937 650.5 658.5 C 669.28292 645.6759 683.63126 640.36526 694 640.09375 z M 408.96875 653.03125 C 408.60922 658.12436 408.14376 663.2013 407.625 668.28125 C 408.14395 663.20069 408.60876 658.12431 408.96875 653.03125 z M 405.84375 683.5 C 405.51332 685.97881 405.17979 688.46357 404.8125 690.9375 C 405.18169 688.46159 405.51148 685.98077 405.84375 683.5 z M 417.96875 732.875 C 456.58724 749.54259 493.98898 769.20099 528.8125 792.9375 C 486.77107 783.78494 451.08085 759.14144 417.96875 732.875 z M 318.71875 738.625 C 321.7096 738.63222 324.69717 738.64564 327.6875 738.6875 C 241.22395 779.24051 143.98194 795.32146 48.8125 794.875 C 88.100592 765.48312 137.57897 757.3815 184.53125 748.75 C 228.96756 742.26235 273.85734 738.51546 318.71875 738.625 z M 365.71875 755 C 360.21245 772.63479 348.16914 786.40566 332.46875 795.78125 C 337.75181 777.99715 348.08371 762.44094 365.71875 755 z M 594 809.59375 C 619.59704 816.81173 644.31731 827.97205 663.8125 846.5 C 637.47172 840.99385 614.16487 827.00556 594 809.59375 z "
     id="path6"
     transform="matrix(0.1343915,0,0,0.1343915,0,-5.7142848)"
     inkscape:export-filename="/home/stas/Desktop/flosscamp.png"
     inkscape:export-xdpi="12.477079"
     inkscape:export-ydpi="12.477079" />
  <path
     style="fill:#94b040"
     d="M 371.53125 112.625 C 370.48949 141.12379 371.15939 169.6887 368.40625 198.1875 C 365.35546 230.77878 353.74725 261.95186 350.25 294.46875 C 346.00866 339.7841 343.53539 386.44231 325.15625 428.78125 C 317.12006 448.79739 304.55232 467.32755 300.90625 488.90625 C 294.65589 554.16328 299.86098 619.93199 309.90625 684.59375 L 310.59375 689.96875 C 321.23433 693.46599 331.87136 697.01017 342.4375 700.65625 C 344.07942 698.20736 345.66423 695.761 347.25 693.28125 C 348.82632 690.81644 350.41219 688.33648 351.9375 685.84375 C 351.94218 685.8361 351.93282 685.82015 351.9375 685.8125 C 353.46257 683.31983 354.95883 680.83054 356.4375 678.3125 C 356.44206 678.30474 356.43294 678.28901 356.4375 678.28125 C 357.92057 675.75542 359.40273 673.23627 360.84375 670.6875 C 363.73108 665.58185 366.50332 660.4322 369.25 655.25 C 370.61645 652.67128 371.97402 650.09386 373.3125 647.5 C 373.31673 647.49179 373.30825 647.47698 373.3125 647.46875 C 374.65512 644.86666 375.9934 642.27099 377.3125 639.65625 C 378.63629 637.03314 379.94521 634.41448 381.25 631.78125 C 382.55018 629.15651 383.83907 626.5385 385.125 623.90625 C 387.69777 618.64168 390.23796 613.37275 392.78125 608.09375 C 397.86631 597.53598 402.93494 586.96048 408.125 576.46875 C 408.85051 584.11426 409.38549 591.77787 409.71875 599.4375 C 409.94094 604.54396 410.07315 609.64242 410.125 614.75 C 410.17676 619.8472 410.14596 624.96823 410.03125 630.0625 C 410.03104 630.07295 410.03149 630.08334 410.03125 630.09375 C 409.91599 635.19847 409.71672 640.2773 409.4375 645.375 C 409.29791 647.92387 409.14874 650.48491 408.96875 653.03125 C 408.42879 660.6703 407.70874 668.29894 406.8125 675.90625 C 405.9163 683.51356 404.83546 691.09439 403.59375 698.65625 C 414.60629 693.522 425.61985 688.46163 436.78125 683.625 C 440.8738 630.94317 450.405 578.41082 470.71875 529.375 C 472.43017 561.07333 470.79783 592.76293 467.375 624.3125 C 473.47657 624.53579 485.59783 624.9137 491.625 625.0625 C 494.2293 574.68739 502.18729 524.76951 505.3125 474.46875 C 510.96759 408.61642 491.03051 344.62897 479.125 280.5625 C 470.79114 245.59006 445.77641 218.28462 427.84375 188 C 411.62252 160.98937 393.10997 135.54308 371.53125 112.625 z M 405.09375 197.0625 C 435.52717 260.38488 456.4373 330.03431 459.5625 400.5 C 442.0763 355.6311 429.62913 308.97748 411.25 264.40625 C 401.80006 243.19955 403.97761 219.60853 405.09375 197.0625 z M 382.09375 291.9375 C 384.9957 350.12568 385.1531 408.38624 387.90625 466.5 C 390.80821 534.58464 378.36431 606.45341 335.28125 661.21875 C 323.45016 596.33373 336.56496 530.35672 344.75 465.84375 C 347.87519 490.91973 336.47117 527.82687 369.0625 535.9375 C 372.48533 465.47177 366.00866 394.93448 370.25 324.46875 C 370.17558 312.41441 376.51304 302.05718 382.09375 291.9375 z M 409.78125 331.09375 C 441.33086 398.21106 453.81206 475.65315 437.21875 548.5 C 414.07741 478.70396 402.71235 404.61028 409.78125 331.09375 z "
     id="path8"
     inkscape:export-filename="/home/stas/Desktop/flosscamp.png"
     inkscape:export-xdpi="12.477079"
     inkscape:export-ydpi="12.477079"
     transform="matrix(0.1343915,0,0,0.1343915,0,-5.7142848)" />
  <path
     style="fill:#94b040"
     d="M 71.558295,40.138415 C 74.568291,48.478412 74.825934,57.460372 74.115933,66.210366 C 74.485932,63.700366 74.998043,61.198039 75.548043,58.71804 C 75.738039,63.168037 75.538479,67.629599 74.968479,72.039597 C 74.618474,71.489598 73.918367,70.380537 73.578367,69.830537 C 72.938365,73.320533 72.047748,76.767888 70.747746,80.077889 C 76.817741,74.617894 79.346901,65.918883 77.836898,57.978887 C 76.716902,51.79889 75.848295,45.048414 71.558295,40.138415 z"
     id="path20"
     inkscape:export-filename="/home/stas/Desktop/flosscamp.png"
     inkscape:export-xdpi="12.477079"
     inkscape:export-ydpi="12.477079" />
  <path
     d="M 16.55,82.01 C 20.4,81.27 24.57,81.24 27.74,83.89 C 23.89,84.52 19.79,84.48 16.55,82.01 z"
     id="path28"
     style="fill:#94b040"
     inkscape:export-filename="/home/stas/Desktop/flosscamp.png"
     inkscape:export-xdpi="12.477079"
     inkscape:export-ydpi="12.477079" />
  <path
     d="M 34.45,87.11 C 35.91,87.97 37.29,88.93 38.67,89.9 C 31.92,92.71 24.44,91.72 17.47,93.6 C 13.03,92.96 8.52,92.74 4.09,93.57 C 4.22,93.11 4.49,92.18 4.62,91.72 C 14.52,89.89 24.77,90 34.45,87.11 z"
     id="path32"
     style="fill:#94b040"
     inkscape:export-filename="/home/stas/Desktop/flosscamp.png"
     inkscape:export-xdpi="12.477079"
     inkscape:export-ydpi="12.477079" />
  <path
     d="M 36.37,99.61 C 38.37,99.02 40.37,98.39 42.37,97.79 C 41.61,99.86 40.85,101.93 40.02,103.98 C 34.81,111.18 29.57,118.36 24.64,125.75 C 23.67,125.47 22.7,125.19 21.73,124.92 C 25.1,118.14 29.62,112.04 33.75,105.71 C 34.98,103.85 35.77,101.75 36.37,99.61 z"
     id="path42"
     style="fill:#94b040"
     inkscape:export-filename="/home/stas/Desktop/flosscamp.png"
     inkscape:export-xdpi="12.477079"
     inkscape:export-ydpi="12.477079" />
  <path
     d="M 66.399152,90.100116 C 70.179152,87.640116 82.923462,84.265576 87.153462,82.815573 C 101.20151,73.224146 96.849552,94.881296 83.990852,90.749776 C 80.336902,90.233016 70.086552,90.347016 66.399152,90.100116 z"
     id="path2430"
     style="fill:#94b040"
     sodipodi:nodetypes="cccc"
     inkscape:export-filename="/home/stas/Desktop/flosscamp.png"
     inkscape:export-xdpi="12.477079"
     inkscape:export-ydpi="12.477079" />
</svg>
