<?xml version="1.0" encoding="UTF-8" standalone="no"?>
<!-- Created with Inkscape (http://www.inkscape.org/) -->
<svg
   xmlns:dc="http://purl.org/dc/elements/1.1/"
   xmlns:cc="http://creativecommons.org/ns#"
   xmlns:rdf="http://www.w3.org/1999/02/22-rdf-syntax-ns#"
   xmlns:svg="http://www.w3.org/2000/svg"
   xmlns="http://www.w3.org/2000/svg"
   xmlns:sodipodi="http://sodipodi.sourceforge.net/DTD/sodipodi-0.dtd"
   xmlns:inkscape="http://www.inkscape.org/namespaces/inkscape"
   width="7086.6138"
   height="1771.6534"
   id="svg2"
   sodipodi:version="0.32"
   inkscape:version="0.46"
   version="1.0"
   sodipodi:docname="flosscamp_banner.svg"
   inkscape:output_extension="org.inkscape.output.svg.inkscape"
   inkscape:export-filename="/home/stas/Desktop/flosscamb_banner.png"
   inkscape:export-xdpi="9.9899998"
   inkscape:export-ydpi="9.9899998">
  <defs
     id="defs4">
    <inkscape:perspective
       sodipodi:type="inkscape:persp3d"
       inkscape:vp_x="0 : 526.18109 : 1"
       inkscape:vp_y="0 : 1000 : 0"
       inkscape:vp_z="744.09448 : 526.18109 : 1"
       inkscape:persp3d-origin="372.04724 : 350.78739 : 1"
       id="perspective10" />
    <inkscape:perspective
       id="perspective51"
       inkscape:persp3d-origin="62.5 : 54.166667 : 1"
       inkscape:vp_z="125 : 81.25 : 1"
       inkscape:vp_y="0 : 1000 : 0"
       inkscape:vp_x="0 : 81.25 : 1"
       sodipodi:type="inkscape:persp3d" />
  </defs>
  <sodipodi:namedview
     id="base"
     pagecolor="#ffffff"
     bordercolor="#666666"
     borderopacity="1.0"
     gridtolerance="10000"
     guidetolerance="10"
     objecttolerance="10"
     inkscape:pageopacity="1"
     inkscape:pageshadow="2"
     inkscape:zoom="0.061871843"
     inkscape:cx="2724.9129"
     inkscape:cy="204.79753"
     inkscape:document-units="px"
     inkscape:current-layer="g3177"
     showgrid="false"
     width="1052.36px"
     units="m"
     inkscape:window-width="1280"
     inkscape:window-height="759"
     inkscape:window-x="0"
     inkscape:window-y="22" />
  <metadata
     id="metadata7">
    <rdf:RDF>
      <cc:Work
         rdf:about="">
        <dc:format>image/svg+xml</dc:format>
        <dc:type
           rdf:resource="http://purl.org/dc/dcmitype/StillImage" />
      </cc:Work>
    </rdf:RDF>
  </metadata>
  <g
     inkscape:label="Layer 1"
     inkscape:groupmode="layer"
     id="layer1">
    <g
       id="g3222"
       transform="translate(212.7799,0)">
      <g
         transform="matrix(11.171963,0,0,11.171963,5159.0257,152.7463)"
         id="g2396">
        <path
           style="fill:#3b5635"
           d="M 361.03125,58.3125 C 352.82761,58.302036 344.60989,58.841487 336.40625,59.34375 C 340.20113,105.70073 348.15503,152.11473 344.0625,198.84375 C 339.3003,255.69235 324.58931,312.02965 298.84375,363 C 277.41405,405.11553 259.53308,449.76944 254.25,497.09375 C 248.44606,554.38881 245.54058,613.9133 264.8125,669.125 C 213.17234,650.44834 162.88881,619.27921 105.59375,627.6875 C 109.76068,642.12304 113.93578,656.55267 117.65625,671.0625 C 162.97149,685.2003 213.48402,667.69509 256.34375,690.6875 C 267.20742,697.08671 277.4815,704.25102 287.75,711.46875 C 237.52362,732.37769 181.86328,725.01101 130,739 C 96.218165,752.91435 59.900787,760.34573 26.9375,776.34375 C 11.38598,781.99865 16.958552,801.55721 13.3125,814.28125 C 99.999254,817.18355 187.50986,809.46428 270.625,783.71875 C 285.50678,779.32837 300.39937,774.62081 315.28125,770.15625 C 309.62624,785.55879 303.95722,800.96481 297.78125,816.21875 C 280.6673,863.6922 266.59571,913.8518 233.78125,953.4375 C 215.92298,977.32282 187.60122,988.94657 161.78125,1001.9688 C 185.51786,1002.2664 214.22653,1008.8122 232.53125,989.09375 C 256.26775,964.61293 272.2653,933.94219 289.15625,904.625 C 307.31194,874.04283 307.09657,833.70382 335,809 C 355.31378,789.42999 373.08238,767.5609 388.1875,743.75 C 422.78767,754.01828 450.26157,777.673 480.84375,795.53125 C 533.00455,819.19312 590.74551,829.83896 639.78125,860.71875 C 654.14238,871.65705 671.16144,861.55271 682.84375,851.65625 C 683.36462,836.32812 666.32355,830.57788 655.90625,823.0625 C 607.39151,792.10861 543.56485,788.40159 504.5,742.9375 C 564.32487,731.9992 625.02622,738.90446 685,744.1875 C 700.32835,744.2618 723.48465,747.39544 731,730.28125 C 736.35737,702.97298 737.10878,674.49268 734.28125,646.8125 C 731.45358,630.74028 725.26744,609.06119 706.21875,606.53125 C 687.83962,603.6295 672.80455,617.71381 657.625,625.75 C 612.53309,656.18357 558.88272,670.2362 505.53125,677.15625 C 512.82327,664.28353 520.80021,651.76868 527.125,638.375 C 536.79801,613.74569 543.42532,588.09379 548.1875,562.125 C 549.67547,553.19565 550.99696,544.19105 552.1875,535.1875 C 557.47035,470.07923 555.5534,403.24477 533.15625,341.1875 C 523.85485,316.63249 513.04976,292.62047 502.78125,268.4375 C 478.30054,212.10955 437.66268,165.38109 404.625,114.1875 C 392.57056,95.808421 382.91007,75.794188 369.21875,58.53125 C 366.48409,58.382431 363.7658,58.315988 361.03125,58.3125 z M 371.53125,112.625 C 393.10996,135.54307 411.62253,160.98937 427.84375,188 C 445.77641,218.28461 470.79114,245.59006 479.125,280.5625 C 508.66551,335.47654 532.93302,395.5333 533.15625,458.78125 C 533.60265,510.7934 536.28431,566.51195 510.6875,613.6875 C 492.53154,642.70724 470.33987,671.94272 436.78125,683.625 C 425.61985,688.46163 414.60627,693.522 403.59375,698.65625 C 383.27996,701.03737 362.90007,701.77239 342.4375,700.65625 C 331.87136,697.01017 321.23434,693.46599 310.59375,689.96875 L 309.90625,684.59375 C 273.44575,650.7375 271.23219,597.77519 270.5625,551.34375 C 269.96715,496.72716 287.23382,444.10722 308.8125,394.625 C 323.54562,361.66162 332.31732,326.09271 350.25,294.46875 C 353.74725,261.95187 365.35546,230.77876 368.40625,198.1875 C 371.15939,169.68871 370.48948,141.12378 371.53125,112.625 z M 409.3125,591.78125 C 409.46688,594.3335 409.60751,596.88416 409.71875,599.4375 C 409.60781,596.88775 409.46773,594.33108 409.3125,591.78125 z M 409.71875,599.4375 C 409.94122,604.54419 410.07274,609.64203 410.125,614.75 C 410.07315,609.64242 409.94095,604.54398 409.71875,599.4375 z M 694,640.09375 C 741.33549,638.85432 705.45683,742.78082 626.96875,717.5625 C 599.78003,713.71719 523.50018,714.5559 496.0625,712.71875 C 524.18912,694.41404 619.02487,669.28937 650.5,658.5 C 669.28292,645.6759 683.63126,640.36526 694,640.09375 z M 408.96875,653.03125 C 408.60922,658.12436 408.14376,663.2013 407.625,668.28125 C 408.14395,663.20069 408.60876,658.12431 408.96875,653.03125 z M 405.84375,683.5 C 405.51332,685.97881 405.17979,688.46357 404.8125,690.9375 C 405.18169,688.46159 405.51148,685.98077 405.84375,683.5 z M 417.96875,732.875 C 456.58724,749.54259 493.98898,769.20099 528.8125,792.9375 C 486.77107,783.78494 451.08085,759.14144 417.96875,732.875 z M 318.71875,738.625 C 321.7096,738.63222 324.69717,738.64564 327.6875,738.6875 C 241.22395,779.24051 143.98194,795.32146 48.8125,794.875 C 88.100592,765.48312 137.57897,757.3815 184.53125,748.75 C 228.96756,742.26235 273.85734,738.51546 318.71875,738.625 z M 365.71875,755 C 360.21245,772.63479 348.16914,786.40566 332.46875,795.78125 C 337.75181,777.99715 348.08371,762.44094 365.71875,755 z M 594,809.59375 C 619.59704,816.81173 644.31731,827.97205 663.8125,846.5 C 637.47172,840.99385 614.16487,827.00556 594,809.59375 z"
           id="path6"
           transform="matrix(0.1343915,0,0,0.1343915,0,-5.7142848)"
           inkscape:export-filename="/home/stas/Desktop/flosscamp.png"
           inkscape:export-xdpi="12.477079"
           inkscape:export-ydpi="12.477079" />
        <path
           style="fill:#94b040"
           d="M 371.53125,112.625 C 370.48949,141.12379 371.15939,169.6887 368.40625,198.1875 C 365.35546,230.77878 353.74725,261.95186 350.25,294.46875 C 346.00866,339.7841 343.53539,386.44231 325.15625,428.78125 C 317.12006,448.79739 304.55232,467.32755 300.90625,488.90625 C 294.65589,554.16328 299.86098,619.93199 309.90625,684.59375 L 310.59375,689.96875 C 321.23433,693.46599 331.87136,697.01017 342.4375,700.65625 C 344.07942,698.20736 345.66423,695.761 347.25,693.28125 C 348.82632,690.81644 350.41219,688.33648 351.9375,685.84375 C 351.94218,685.8361 351.93282,685.82015 351.9375,685.8125 C 353.46257,683.31983 354.95883,680.83054 356.4375,678.3125 C 356.44206,678.30474 356.43294,678.28901 356.4375,678.28125 C 357.92057,675.75542 359.40273,673.23627 360.84375,670.6875 C 363.73108,665.58185 366.50332,660.4322 369.25,655.25 C 370.61645,652.67128 371.97402,650.09386 373.3125,647.5 C 373.31673,647.49179 373.30825,647.47698 373.3125,647.46875 C 374.65512,644.86666 375.9934,642.27099 377.3125,639.65625 C 378.63629,637.03314 379.94521,634.41448 381.25,631.78125 C 382.55018,629.15651 383.83907,626.5385 385.125,623.90625 C 387.69777,618.64168 390.23796,613.37275 392.78125,608.09375 C 397.86631,597.53598 402.93494,586.96048 408.125,576.46875 C 408.85051,584.11426 409.38549,591.77787 409.71875,599.4375 C 409.94094,604.54396 410.07315,609.64242 410.125,614.75 C 410.17676,619.8472 410.14596,624.96823 410.03125,630.0625 C 410.03104,630.07295 410.03149,630.08334 410.03125,630.09375 C 409.91599,635.19847 409.71672,640.2773 409.4375,645.375 C 409.29791,647.92387 409.14874,650.48491 408.96875,653.03125 C 408.42879,660.6703 407.70874,668.29894 406.8125,675.90625 C 405.9163,683.51356 404.83546,691.09439 403.59375,698.65625 C 414.60629,693.522 425.61985,688.46163 436.78125,683.625 C 440.8738,630.94317 450.405,578.41082 470.71875,529.375 C 472.43017,561.07333 470.79783,592.76293 467.375,624.3125 C 473.47657,624.53579 485.59783,624.9137 491.625,625.0625 C 494.2293,574.68739 502.18729,524.76951 505.3125,474.46875 C 510.96759,408.61642 491.03051,344.62897 479.125,280.5625 C 470.79114,245.59006 445.77641,218.28462 427.84375,188 C 411.62252,160.98937 393.10997,135.54308 371.53125,112.625 z M 405.09375,197.0625 C 435.52717,260.38488 456.4373,330.03431 459.5625,400.5 C 442.0763,355.6311 429.62913,308.97748 411.25,264.40625 C 401.80006,243.19955 403.97761,219.60853 405.09375,197.0625 z M 382.09375,291.9375 C 384.9957,350.12568 385.1531,408.38624 387.90625,466.5 C 390.80821,534.58464 378.36431,606.45341 335.28125,661.21875 C 323.45016,596.33373 336.56496,530.35672 344.75,465.84375 C 347.87519,490.91973 336.47117,527.82687 369.0625,535.9375 C 372.48533,465.47177 366.00866,394.93448 370.25,324.46875 C 370.17558,312.41441 376.51304,302.05718 382.09375,291.9375 z M 409.78125,331.09375 C 441.33086,398.21106 453.81206,475.65315 437.21875,548.5 C 414.07741,478.70396 402.71235,404.61028 409.78125,331.09375 z"
           id="path8"
           inkscape:export-filename="/home/stas/Desktop/flosscamp.png"
           inkscape:export-xdpi="12.477079"
           inkscape:export-ydpi="12.477079"
           transform="matrix(0.1343915,0,0,0.1343915,0,-5.7142848)" />
        <path
           style="fill:#94b040"
           d="M 71.558295,40.138415 C 74.568291,48.478412 74.825934,57.460372 74.115933,66.210366 C 74.485932,63.700366 74.998043,61.198039 75.548043,58.71804 C 75.738039,63.168037 75.538479,67.629599 74.968479,72.039597 C 74.618474,71.489598 73.918367,70.380537 73.578367,69.830537 C 72.938365,73.320533 72.047748,76.767888 70.747746,80.077889 C 76.817741,74.617894 79.346901,65.918883 77.836898,57.978887 C 76.716902,51.79889 75.848295,45.048414 71.558295,40.138415 z"
           id="path20"
           inkscape:export-filename="/home/stas/Desktop/flosscamp.png"
           inkscape:export-xdpi="12.477079"
           inkscape:export-ydpi="12.477079" />
        <path
           d="M 16.55,82.01 C 20.4,81.27 24.57,81.24 27.74,83.89 C 23.89,84.52 19.79,84.48 16.55,82.01 z"
           id="path28"
           style="fill:#94b040"
           inkscape:export-filename="/home/stas/Desktop/flosscamp.png"
           inkscape:export-xdpi="12.477079"
           inkscape:export-ydpi="12.477079" />
        <path
           d="M 34.45,87.11 C 35.91,87.97 37.29,88.93 38.67,89.9 C 31.92,92.71 24.44,91.72 17.47,93.6 C 13.03,92.96 8.52,92.74 4.09,93.57 C 4.22,93.11 4.49,92.18 4.62,91.72 C 14.52,89.89 24.77,90 34.45,87.11 z"
           id="path32"
           style="fill:#94b040"
           inkscape:export-filename="/home/stas/Desktop/flosscamp.png"
           inkscape:export-xdpi="12.477079"
           inkscape:export-ydpi="12.477079" />
        <path
           d="M 36.37,99.61 C 38.37,99.02 40.37,98.39 42.37,97.79 C 41.61,99.86 40.85,101.93 40.02,103.98 C 34.81,111.18 29.57,118.36 24.64,125.75 C 23.67,125.47 22.7,125.19 21.73,124.92 C 25.1,118.14 29.62,112.04 33.75,105.71 C 34.98,103.85 35.77,101.75 36.37,99.61 z"
           id="path42"
           style="fill:#94b040"
           inkscape:export-filename="/home/stas/Desktop/flosscamp.png"
           inkscape:export-xdpi="12.477079"
           inkscape:export-ydpi="12.477079" />
        <path
           d="M 66.399152,90.100116 C 70.179152,87.640116 82.923462,84.265576 87.153462,82.815573 C 101.20151,73.224146 96.849552,94.881296 83.990852,90.749776 C 80.336902,90.233016 70.086552,90.347016 66.399152,90.100116 z"
           id="path2430"
           style="fill:#94b040"
           sodipodi:nodetypes="cccc"
           inkscape:export-filename="/home/stas/Desktop/flosscamp.png"
           inkscape:export-xdpi="12.477079"
           inkscape:export-ydpi="12.477079" />
      </g>
      <g
         transform="translate(0,-109.00754)"
         id="g3211">
        <rect
           style="fill:#94b040;fill-opacity:1;stroke:none;stroke-width:0;stroke-linecap:round;stroke-miterlimit:4;stroke-dasharray:none;stroke-opacity:1"
           id="rect3787"
           width="5287.6123"
           height="1773.8279"
           x="-212.77991"
           y="109.00754" />
        <g
           id="g3177"
           transform="translate(120,-173.57081)">
          <path
             id="flowRoot2417"
             d="M 436.3493,765.35714 L 179.7087,765.35714 L 179.7087,967.94503 L 413.4977,967.94503 L 413.4977,1030.7868 L 179.7087,1030.7868 L 179.7087,1322.5837 L 107.6383,1322.5837 L 107.6383,702.51534 L 436.3493,702.51534 L 436.3493,765.35714 M 984.7868,1322.5837 L 647.2868,1322.5837 L 647.2868,702.51534 L 719.3571,702.51534 L 719.3571,1259.7419 L 984.7868,1259.7419 L 984.7868,1322.5837 M 1343.3805,690.65011 C 1412.8138,690.65074 1465.6946,718.18978 1502.0231,773.2673 C 1538.6437,828.05295 1556.9543,907.88685 1556.9548,1012.7692 C 1556.9543,1117.0663 1538.7902,1196.7538 1502.4626,1251.8317 C 1466.1341,1306.9099 1413.1068,1334.4489 1343.3805,1334.4489 C 1274.2397,1334.4489 1221.3589,1307.0563 1184.738,1252.2712 C 1148.4098,1197.1932 1130.2457,1117.3593 1130.2458,1012.7692 C 1130.2457,908.17982 1148.4098,828.34592 1184.738,773.2673 C 1221.0659,718.18978 1273.9467,690.65074 1343.3805,690.65011 M 1343.3805,1271.1676 C 1434.7864,1271.1677 1480.4895,1185.035 1480.4899,1012.7692 C 1480.4895,840.21114 1434.7864,753.93193 1343.3805,753.93136 C 1298.8491,753.93193 1264.8647,776.34401 1241.4274,821.16769 C 1218.2827,865.69939 1206.7105,929.56652 1206.7106,1012.7692 C 1206.7105,1096.8515 1218.2827,1161.0116 1241.4274,1205.2497 C 1264.5718,1249.1951 1298.5561,1271.1677 1343.3805,1271.1676 M 2016.1833,771.07003 C 1979.2688,758.47294 1944.2591,752.17412 1911.154,752.17355 C 1873.6537,752.17412 1843.0385,760.81669 1819.3083,778.10128 C 1795.8706,795.094 1784.1519,819.41038 1784.152,851.0505 C 1784.1519,888.55093 1815.06,921.50988 1876.8766,949.92745 C 1922.5794,971.02155 1952.7552,985.66998 1967.404,993.87276 C 1982.345,1002.0762 1997.4329,1013.3555 2012.6676,1027.7107 C 2027.9016,1042.0664 2040.0598,1059.0586 2049.1423,1078.6872 C 2058.5168,1098.0234 2063.2043,1119.8495 2063.2048,1144.1657 C 2063.2043,1204.5174 2042.843,1251.3923 2002.1208,1284.7907 C 1961.6907,1317.8962 1913.9369,1334.4489 1858.8591,1334.4489 C 1805.5385,1334.4489 1758.8101,1323.902 1718.6735,1302.8083 L 1733.6149,1240.8454 C 1780.7827,1262.2322 1821.9448,1272.9255 1857.1012,1272.9255 C 1898.1166,1272.9255 1930.929,1262.3786 1955.5387,1241.2848 C 1980.4407,1219.8983 1992.8919,1190.6014 1992.8923,1153.3942 C 1992.8919,1125.8554 1984.8352,1102.5644 1968.7223,1083.5212 C 1952.6087,1064.1855 1922.8724,1044.5566 1879.5133,1024.6345 C 1834.9819,1004.127 1806.1245,990.21099 1792.9411,982.88644 C 1780.0503,975.2696 1767.1597,964.86922 1754.2692,951.68526 C 1741.3785,938.50206 1731.4175,923.70715 1724.3864,907.3005 C 1717.355,890.89468 1713.8394,873.02361 1713.8395,853.68722 C 1713.8394,802.41821 1732.2964,762.42801 1769.2106,733.71652 C 1806.1245,705.0062 1852.853,690.65074 1909.3962,690.65011 C 1950.7044,690.65074 1991.72,696.94956 2032.443,709.54659 L 2016.1833,771.07003 M 2555.8317,771.07003 C 2518.9173,758.47294 2483.9076,752.17412 2450.8024,752.17355 C 2413.3022,752.17412 2382.6869,760.81669 2358.9567,778.10128 C 2335.519,795.094 2323.8003,819.41038 2323.8005,851.0505 C 2323.8003,888.55093 2354.7085,921.50988 2416.5251,949.92745 C 2462.2279,971.02155 2492.4036,985.66998 2507.0524,993.87276 C 2521.9935,1002.0762 2537.0813,1013.3555 2552.3161,1027.7107 C 2567.55,1042.0664 2579.7082,1059.0586 2588.7907,1078.6872 C 2598.1652,1098.0234 2602.8527,1119.8495 2602.8532,1144.1657 C 2602.8527,1204.5174 2582.4914,1251.3923 2541.7692,1284.7907 C 2501.3392,1317.8962 2453.5853,1334.4489 2398.5075,1334.4489 C 2345.187,1334.4489 2298.4585,1323.902 2258.3219,1302.8083 L 2273.2633,1240.8454 C 2320.4312,1262.2322 2361.5932,1272.9255 2396.7497,1272.9255 C 2437.765,1272.9255 2470.5775,1262.3786 2495.1872,1241.2848 C 2520.0892,1219.8983 2532.5403,1190.6014 2532.5407,1153.3942 C 2532.5403,1125.8554 2524.4837,1102.5644 2508.3708,1083.5212 C 2492.2572,1064.1855 2462.5209,1044.5566 2419.1618,1024.6345 C 2374.6303,1004.127 2345.7729,990.21099 2332.5895,982.88644 C 2319.6987,975.2696 2306.8081,964.86922 2293.9176,951.68526 C 2281.0269,938.50206 2271.066,923.70715 2264.0348,907.3005 C 2257.0035,890.89468 2253.4879,873.02361 2253.488,853.68722 C 2253.4879,802.41821 2271.9449,762.42801 2308.8591,733.71652 C 2345.7729,705.0062 2392.5014,690.65074 2449.0446,690.65011 C 2490.3529,690.65074 2531.3684,696.94956 2572.0915,709.54659 L 2555.8317,771.07003 M 3164.0348,1283.9118 C 3115.4016,1317.6032 3059.0052,1334.4489 2994.8454,1334.4489 C 2914.5717,1334.4489 2853.4878,1306.9099 2811.5934,1251.8317 C 2769.9918,1196.7538 2749.191,1117.0663 2749.1911,1012.7692 C 2749.191,911.98841 2769.4059,833.1799 2809.8356,776.34347 C 2850.2651,719.21517 2911.935,690.65074 2994.8454,690.65011 C 3024.7279,690.65074 3054.3177,694.45933 3083.6149,702.07589 C 3112.9114,709.69369 3136.4953,719.8011 3154.3669,732.39816 L 3130.6364,789.08761 C 3089.3274,765.65067 3044.0638,753.93193 2994.8454,753.93136 C 2937.7162,753.93193 2895.2358,774.73269 2867.404,816.3337 C 2839.5718,857.64276 2825.6558,923.12121 2825.6559,1012.7692 C 2825.6558,1185.035 2882.0522,1271.1677 2994.8454,1271.1676 C 3042.5989,1271.1677 3091.5247,1256.5193 3141.6227,1227.2223 L 3164.0348,1283.9118 M 3691.818,1322.5837 L 3623.7028,1322.5837 C 3618.136,1304.1266 3615.3528,1279.5173 3615.3532,1248.7555 C 3576.388,1305.8845 3523.3607,1334.4489 3456.2712,1334.4489 C 3422.2866,1334.4489 3392.2573,1322.4372 3366.1833,1298.4137 C 3340.4019,1274.0974 3327.5113,1242.8962 3327.5114,1204.8103 C 3327.5113,1182.2518 3332.0523,1162.33 3341.1344,1145.0446 C 3350.2164,1127.7597 3363.5464,1113.2577 3381.1247,1101.5388 C 3398.7026,1089.5273 3420.0893,1080.1523 3445.2848,1073.4138 C 3470.4799,1066.3828 3500.3627,1061.5488 3534.9333,1058.9118 L 3611.8376,1052.7595 L 3611.8376,1030.7868 C 3611.8372,952.27157 3575.2161,913.0138 3501.9743,913.01339 C 3484.6889,913.0138 3462.7162,916.82239 3436.0563,924.43917 C 3409.689,931.76378 3386.9839,940.55283 3367.9411,950.80636 L 3349.9235,901.58761 C 3412.3257,869.65447 3470.3334,853.68769 3523.9469,853.68722 C 3628.2434,853.68769 3680.3918,908.91224 3680.3923,1019.361 L 3680.3923,1216.236 C 3680.3918,1256.0798 3684.2004,1291.529 3691.818,1322.5837 M 3611.8376,1186.7927 L 3611.8376,1103.736 C 3550.0208,1109.3027 3507.5404,1114.5761 3484.3962,1119.5564 C 3461.5444,1124.2441 3441.6225,1133.1796 3424.6305,1146.363 C 3407.9311,1159.5468 3399.5815,1177.4178 3399.5817,1199.9763 C 3399.5815,1220.4842 3406.7593,1237.0369 3421.1149,1249.6344 C 3435.4702,1262.2322 3453.7807,1268.531 3476.0466,1268.5309 C 3500.3627,1268.531 3524.5326,1261.3533 3548.5563,1246.9977 C 3572.5794,1232.3494 3593.6731,1212.2811 3611.8376,1186.7927 M 4256.0759,1322.5837 L 4187.5212,1322.5837 L 4187.5212,1021.9978 C 4187.5207,949.34189 4174.0442,913.0138 4147.0915,913.01339 C 4133.3216,913.0138 4118.0872,925.61144 4101.3883,950.80636 C 4084.9818,975.70905 4076.7787,989.47857 4076.779,992.11495 L 4076.779,1322.5837 L 4008.6637,1322.5837 L 4008.6637,1021.9978 C 4008.6635,949.34189 3995.0405,913.0138 3967.7946,913.01339 C 3954.3179,913.0138 3939.23,925.61144 3922.5309,950.80636 C 3906.1245,975.70905 3897.9214,989.47857 3897.9216,992.11495 L 3897.9216,1322.5837 L 3829.3669,1322.5837 L 3829.3669,864.67355 L 3895.2848,864.67355 L 3895.2848,933.66769 C 3908.1753,909.35169 3923.4097,890.01578 3940.988,875.65987 C 3958.8589,861.0119 3976.5835,853.68769 3994.1618,853.68722 C 4012.6186,853.68769 4029.1713,861.0119 4043.82,875.65987 C 4058.4681,890.01578 4068.5756,909.35169 4074.1423,933.66769 C 4087.0326,909.35169 4102.4134,890.01578 4120.2848,875.65987 C 4138.1556,861.0119 4155.7337,853.68769 4173.0192,853.68722 C 4228.3898,853.68769 4256.0754,903.19936 4256.0759,1002.2224 L 4256.0759,1322.5837 M 4475.363,923.99972 C 4490.5972,902.90639 4511.1049,885.91422 4536.8864,873.02316 C 4562.9604,860.13299 4590.3529,853.68769 4619.0641,853.68722 C 4671.7981,853.68769 4713.1067,875.51384 4742.9899,919.16573 C 4773.1652,962.52547 4788.2531,1019.0684 4788.2536,1088.7946 C 4788.2531,1159.1073 4772.4328,1217.701 4740.7926,1264.5759 C 4709.4446,1311.1579 4667.1107,1334.4489 4613.7907,1334.4489 C 4585.3725,1334.4489 4558.7123,1327.4176 4533.8102,1313.3551 C 4509.2007,1298.9997 4489.7183,1280.1032 4475.363,1256.6657 L 4475.363,1503.6383 L 4406.8083,1503.6383 L 4406.8083,864.67355 L 4475.363,864.67355 L 4475.363,923.99972 M 4475.363,992.11495 L 4475.363,1182.3982 C 4488.2534,1208.1795 4505.685,1229.7127 4527.6579,1246.9977 C 4549.6303,1264.2829 4572.3354,1272.9255 4595.7731,1272.9255 C 4632.6869,1272.9255 4661.9837,1255.6404 4683.6637,1221.07 C 4705.636,1186.4999 4716.6223,1143.58 4716.6227,1092.3103 C 4716.6223,1039.5762 4706.2219,996.50981 4685.4216,963.11105 C 4664.6204,929.713 4635.6165,913.0138 4598.4098,913.01339 C 4550.0698,913.0138 4509.0542,939.38096 4475.363,992.11495"
             style="font-size:900px;font-style:normal;font-weight:normal;fill:#fcfdf9;fill-opacity:1;stroke:#ffffff;stroke-width:60.23622047;stroke-linecap:round;stroke-linejoin:miter;stroke-miterlimit:4;stroke-dasharray:none;stroke-opacity:1;font-family:Bitstream Vera Sans" />
          <flowRoot
             transform="translate(-1407.9837,598.66523)"
             style="font-size:219;font-style:normal;font-weight:normal;fill:#ffffff;fill-opacity:1;stroke:none;stroke-width:1px;stroke-linecap:butt;stroke-linejoin:miter;stroke-opacity:1;font-family:Bitstream Vera Sans"
             id="flowRoot3771"
             xml:space="preserve"><flowRegion
               id="flowRegion3773"><rect
                 style="font-size:219;fill:#ffffff;fill-opacity:1"
                 y="1028.7963"
                 x="1485.7142"
                 height="314.88904"
                 width="4787.5391"
                 id="rect3775" /></flowRegion><flowPara
               id="flowPara3779"
               style="font-size:219;fill:#ffffff;fill-opacity:1">Întâlnirea comunităților FLOSS din România</flowPara></flowRoot>          <rect
             style="fill:#fcfdf9;fill-opacity:1;stroke:none;stroke-width:31.88976288;stroke-linecap:round;stroke-miterlimit:4;stroke-dasharray:none;stroke-opacity:1"
             id="rect3184"
             width="5291.4287"
             height="11.428572"
             x="-332.77991"
             y="1585.3746" />
        </g>
        <rect
           style="fill:#94b040;fill-opacity:1;stroke:none;stroke-width:0;stroke-linecap:round;stroke-miterlimit:4;stroke-dasharray:none;stroke-opacity:1"
           id="rect3789"
           width="487.61249"
           height="1771.7061"
           x="6386.2212"
           y="109.00754" />
      </g>
    </g>
  </g>
</svg>
